<svg width="162" height="162" viewBox="0 0 162 162" fill="none" xmlns="http://www.w3.org/2000/svg">
<g clip-path="url(#clip0_951_1598)">
<path d="M6 -418C2.6863 -418 9.26479e-06 -415.314 0 -412L0.000976562 -128V-0.555664C0.000976562 1.02853 0.626808 2.54884 1.74316 3.67285L157.247 160.229C158.373 161.362 159.907 162 161.505 162H0V-418H6ZM775 162H769.001C772.302 162 774.98 159.334 775 156.038V162ZM775.001 -412V156C775.001 156.013 775 156.025 775 156.038V-412.039C775 -412.026 775.001 -412.013 775.001 -412ZM775 -412.039C774.979 -415.335 772.301 -418 769 -418H775V-412.039Z" fill="#D9D9D9"/>
</g>
<defs>
<clipPath id="clip0_951_1598">
<rect width="162" height="162" fill="white"/>
</clipPath>
</defs>
</svg>
