<svg width="44" height="43" viewBox="0 0 44 43" fill="none" xmlns="http://www.w3.org/2000/svg">
<path d="M13.9181 41.5L6.17132 35.999L15.6313 23.9754L2 19.6532L4.90503 10.6945L17.8659 16.4312L17.1955 1.5H26.8045L26.1341 16.4312L39.095 10.6945L42 19.6532L28.3687 23.9754L37.7542 35.999L30.0075 41.4214L21.9628 28.6906L13.9181 41.5Z" fill="white"/>
<path d="M27.3271 1L27.3037 1.52246L26.6699 15.6465L38.8926 10.2373L39.3994 10.0127L39.5703 10.54L42.4756 19.499L42.6309 19.9775L42.1514 20.1299L29.2051 24.2344L38.1484 35.6914L38.4727 36.1064L38.041 36.4082L30.2939 41.8311L29.8652 42.1318L29.585 41.6885L21.9629 29.6279L14.3418 41.7656L14.0596 42.2139L13.6289 41.9072L5.88184 36.4062L5.4541 36.1025L5.77832 35.6895L14.791 24.2334L1.84863 20.1299L1.36914 19.9775L1.52441 19.499L4.42969 10.54L4.60059 10.0127L5.10742 10.2373L17.3291 15.6465L16.6963 1.52246L16.6729 1H27.3271Z" stroke="#090915" stroke-opacity="0.1"/>
</svg>
