<svg width="25" height="25" viewBox="0 0 25 25" fill="none" xmlns="http://www.w3.org/2000/svg">
<g clip-path="url(#clip0_931_13)">
<path d="M15.6426 23.2139C16.7423 23.9233 18.0527 24.2325 19.3535 24.0894C20.6544 23.9463 21.8662 23.3597 22.7854 22.4282L23.589 21.6425C23.9413 21.2821 24.1385 20.7982 24.1385 20.2942C24.1385 19.7903 23.9413 19.3064 23.589 18.946L20.1783 15.571C19.821 15.2199 19.34 15.0231 18.839 15.0231C18.338 15.0231 17.857 15.2199 17.4997 15.571V15.571C17.1394 15.9233 16.6554 16.1206 16.1515 16.1206C15.6476 16.1206 15.1636 15.9233 14.8033 15.571L9.44614 10.2139C9.26743 10.0378 9.12551 9.82789 9.02865 9.59644C8.93178 9.36498 8.8819 9.11658 8.8819 8.86568C8.8819 8.61477 8.93178 8.36637 9.02865 8.13491C9.12551 7.90346 9.26743 7.69357 9.44614 7.51746V7.51746C9.79731 7.16013 9.99408 6.67918 9.99408 6.17818C9.99408 5.67717 9.79731 5.19622 9.44614 4.83889L6.05328 1.44603C5.69294 1.09374 5.20901 0.896484 4.70507 0.896484C4.20112 0.896484 3.7172 1.09374 3.35685 1.44603L2.57114 2.2496C1.63961 3.16879 1.05299 4.38068 0.909896 5.68151C0.766804 6.98234 1.07598 8.29277 1.78542 9.39246C5.48193 14.8402 10.1853 19.5315 15.6426 23.2139V23.2139Z" stroke="white" stroke-width="1.5" stroke-linecap="round" stroke-linejoin="round"/>
</g>
<defs>
<clipPath id="clip0_931_13">
<rect width="25" height="25" fill="white"/>
</clipPath>
</defs>
</svg>
