<svg width="20" height="20" viewBox="0 0 20 20" fill="none" xmlns="http://www.w3.org/2000/svg">
<g clip-path="url(#clip0_1339_4474)">
<path d="M16.4284 7.14281C16.4284 10.6999 9.99986 19.2857 9.99986 19.2857C9.99986 19.2857 3.57129 10.6999 3.57129 7.14281C3.57129 5.43784 4.24858 3.80271 5.45417 2.59712C6.65976 1.39153 8.2949 0.714233 9.99986 0.714233C11.7048 0.714233 13.34 1.39153 14.5455 2.59712C15.7511 3.80271 16.4284 5.43784 16.4284 7.14281V7.14281Z" stroke="#0668FD" stroke-width="1.5" stroke-linecap="round" stroke-linejoin="round"/>
<path d="M10.0003 9.28571C11.1837 9.28571 12.1431 8.32632 12.1431 7.14286C12.1431 5.95939 11.1837 5 10.0003 5C8.81681 5 7.85742 5.95939 7.85742 7.14286C7.85742 8.32632 8.81681 9.28571 10.0003 9.28571Z" stroke="#0668FD" stroke-width="1.5" stroke-linecap="round" stroke-linejoin="round"/>
</g>
<defs>
<clipPath id="clip0_1339_4474">
<rect width="20" height="20" fill="white"/>
</clipPath>
</defs>
</svg>
