<svg width="60" height="60" viewBox="0 0 60 60" fill="none" xmlns="http://www.w3.org/2000/svg">
<path d="M15.4127 40.2467C14.1332 38.1056 13.0552 35.8524 12.1923 33.5156C10.3324 36.5351 9.73273 39.7785 11.2832 42.2486C11.7089 42.8756 12.2712 43.3999 12.9285 43.7829C13.5859 44.166 14.3217 44.398 15.0816 44.4618C14.9277 43.0486 15.04 41.6194 15.4127 40.2467Z" stroke="white" stroke-width="1.5" stroke-linecap="round" stroke-linejoin="round"/>
<path d="M1.93829 47.7753C1.87691 47.6469 1.81482 47.5119 1.75293 47.3789C1.81079 47.5141 1.87357 47.6454 1.93829 47.7753Z" stroke="white" stroke-width="1.5" stroke-linecap="round" stroke-linejoin="round"/>
<path d="M35.5221 19.0887C37.0462 19.4214 38.5452 19.8586 40.0082 20.3972C38.9195 15.8785 36.0361 12.8047 31.6938 12.8047C30.9005 12.8051 30.1096 12.8908 29.335 13.0603C30.8121 13.4334 32.163 14.188 33.2499 15.247C34.3368 16.306 35.1208 17.6316 35.5221 19.0887Z" stroke="white" stroke-width="1.5" stroke-linecap="round" stroke-linejoin="round"/>
<path d="M15.934 29.1873C15.4296 26.9742 15.0824 24.7287 14.8952 22.4675C14.8773 22.2797 14.869 22.0955 14.8559 21.9095C14.0237 10.1092 22.6798 2 31.9561 2H26.4201C16.9976 2 9.14016 10.6789 9.69574 22.5667C9.74946 23.5147 9.855 24.4592 10.0119 25.3958C10.4748 28.1653 11.2049 30.8844 12.1922 33.5156C13.0551 35.8524 14.1331 38.1056 15.4125 40.2467C16.2782 41.6907 17.2611 43.0625 18.3517 44.3483C20.0536 44.0112 21.7008 43.4444 23.2472 42.6638C21.1606 40.5911 19.4439 38.1827 18.1702 35.5412C17.1944 33.5099 16.4445 31.3794 15.934 29.1873Z" stroke="white" stroke-width="1.5" stroke-linecap="round" stroke-linejoin="round"/>
<path d="M53.7446 42.7994C52.6946 38.8117 50.5428 35.1932 47.5312 32.3505C45.4503 30.3309 43.0656 28.6436 40.4621 27.349C40.1853 27.2095 39.9179 27.0648 39.6311 26.9309C38.3926 26.3589 37.1043 25.8994 35.7819 25.5581C31.4545 24.443 26.9063 24.4819 22.5989 25.6707C22.8203 27.8332 23.4519 29.9347 24.4606 31.8649C27.6132 30.7252 31.0593 30.6587 34.2543 31.6759C35.9227 32.2339 37.4767 33.0835 38.8427 34.1844C41.0387 35.9494 42.7378 38.246 43.7756 40.8521C44.2188 41.9563 44.4924 43.1201 44.5872 44.3047C44.7564 46.8205 43.8557 48.9018 41.6806 49.6487C39.8042 50.2563 37.7978 50.3547 35.87 49.9338C34.6873 50.9081 33.4473 51.8119 32.1563 52.6403C31.2803 53.2026 30.4 53.7242 29.5155 54.2049C34.0655 57.1248 39.4463 58.5091 44.8553 58.1512C46.45 58.1071 48.0119 57.6925 49.4152 56.9407C54.2727 54.1712 54.5761 46.4791 53.7446 42.7994Z" stroke="white" stroke-width="1.5" stroke-linecap="round" stroke-linejoin="round"/>
<path d="M41.3171 44.3846C39.7056 46.4209 37.8796 48.2812 35.8701 49.9342C37.7979 50.3552 39.8043 50.2567 41.6807 49.6491C43.8559 48.9023 44.7566 46.8209 44.5873 44.3052C43.504 44.4558 42.4067 44.4824 41.3171 44.3846Z" stroke="white" stroke-width="1.5" stroke-linecap="round" stroke-linejoin="round"/>
<path d="M58.9838 42.3279C58.7153 36.3384 55.9508 30.1243 48.9659 25.1114C47.6058 24.1408 46.1795 23.2644 44.6974 22.4886C43.1836 21.6884 41.6172 20.9899 40.009 20.3976C38.546 19.859 37.047 19.4218 35.5228 19.0891C31.3803 18.1688 27.0874 18.1328 22.9297 18.9835C22.6264 20.0471 22.4732 21.1472 22.4742 22.2524C22.4505 23.3936 22.4924 24.5351 22.5997 25.6716C26.9071 24.4827 31.4553 24.4439 35.7828 25.559C37.1051 25.9003 38.3934 26.3597 39.632 26.9317C39.9188 27.0657 40.1861 27.2104 40.463 27.3498C43.0664 28.6445 45.4511 30.3317 47.532 32.3513C50.5436 35.194 52.6954 38.8125 53.7454 42.8002C54.5769 46.48 54.2735 54.172 49.416 56.9415C53.5233 54.9928 59.3507 50.5185 58.9838 42.3279Z" stroke="white" stroke-width="1.5" stroke-linecap="round" stroke-linejoin="round"/>
<path d="M31.9553 2C22.6791 2 14.0229 10.1092 14.8551 21.9095C14.8682 22.0955 14.8765 22.2797 14.8944 22.4675C15.0817 24.7287 15.4288 26.9742 15.9332 29.1873C16.4437 31.3794 17.1936 33.5099 18.1694 35.5412C19.4431 38.1827 21.1598 40.5911 23.2465 42.6638C24.8956 41.8501 26.4694 40.8945 27.9497 39.808C28.4959 39.41 29.0196 38.9826 29.5184 38.5276C27.4942 36.5799 25.7879 34.3323 24.4605 31.8652C23.4518 29.935 22.8202 27.8335 22.5988 25.671C22.4916 24.5346 22.4496 23.393 22.4733 22.2518C22.4723 21.1466 22.6256 20.0466 22.9288 18.983C23.3295 17.5004 24.1425 16.1591 25.2751 15.1119C26.4077 14.0648 27.8143 13.3538 29.3349 13.0602C30.1095 12.8906 30.9004 12.8049 31.6937 12.8045C36.0361 12.8045 38.9194 15.8784 40.0081 20.397C41.6164 20.9893 43.1827 21.6879 44.6965 22.488C46.1786 23.2638 47.6049 24.1402 48.9651 25.1109C48.9995 24.7894 49.034 24.468 49.0618 24.1413C50.0188 12.8773 41.3779 2 31.9553 2Z" stroke="white" stroke-width="1.5" stroke-linecap="round" stroke-linejoin="round"/>
<path d="M38.843 34.1846C26.8592 53.8929 7.09128 55.1469 2.4772 48.6955C2.27346 48.4034 2.09333 48.0957 1.93848 47.7755C3.17379 50.5314 4.92186 53.0321 7.0913 55.147C11.6257 59.7417 20.6312 59.0487 29.5158 54.205C30.3987 53.7237 31.279 53.2022 32.1566 52.6405C33.4475 51.812 34.6876 50.9082 35.8702 49.9339C37.8797 48.2809 39.7056 46.4206 41.3172 44.3843C42.2083 43.2574 43.0293 42.0779 43.7758 40.8522C42.738 38.2461 41.0389 35.9495 38.843 34.1846Z" stroke="white" stroke-width="1.5" stroke-linecap="round" stroke-linejoin="round"/>
<path d="M34.2545 31.6764C33.2155 34.2837 31.5968 36.6256 29.5186 38.5278C29.0198 38.9827 28.4961 39.4101 27.9499 39.8082C26.4696 40.8947 24.8957 41.8503 23.2466 42.6639C21.7002 43.4445 20.0529 44.0113 18.351 44.3485C17.2741 44.5594 16.17 44.5977 15.0808 44.4619C14.3209 44.3981 13.5852 44.1661 12.9278 43.7831C12.2704 43.4 11.7082 42.8757 11.2825 42.2487C9.73197 39.7787 10.3317 36.5352 12.1915 33.5158C11.2042 30.8845 10.4741 28.1655 10.0113 25.396C2.76788 31.9703 -0.625909 41.822 1.75302 47.3794C1.81491 47.5124 1.877 47.6474 1.93838 47.7758C2.09423 48.0955 2.27432 48.403 2.47711 48.6957C7.09116 55.1472 26.8591 53.8931 38.8429 34.1848C37.4768 33.0839 35.9228 32.2344 34.2545 31.6764Z" stroke="white" stroke-width="1.5" stroke-linecap="round" stroke-linejoin="round"/>
</svg>
