<svg width="62" height="62" viewBox="0 0 62 62" fill="none" xmlns="http://www.w3.org/2000/svg">
<path d="M32.071 1.02734C37.2651 1.2456 42.1752 3.45775 45.78 7.20372C49.3848 10.9497 51.4069 15.9411 51.4256 21.1399V31.4528C51.4256 36.8435 46.7255 41.2136 41.2129 41.2136H20.7874C20.7874 46.7264 25.1573 51.4265 30.548 51.4265H40.8608C46.0595 51.4077 51.0508 49.3856 54.7967 45.7808C58.5426 42.1759 60.7547 37.2658 60.9729 32.0716C60.9855 31.7155 61.0001 31.3599 61.0001 31.0007C60.9993 23.2305 57.9833 15.7638 52.5872 10.173C47.1912 4.58216 39.8362 1.30347 32.071 1.02734Z" stroke="#2F2F2F" stroke-width="1.5" stroke-linecap="round" stroke-linejoin="round"/>
<path d="M10.5745 40.8609V30.548C10.5745 25.1572 15.2227 20.7871 20.7872 20.7871H41.2127C41.2127 15.2225 36.8427 10.5742 31.452 10.5742H21.1392C15.9377 10.575 10.9384 12.5893 7.18908 16.1948C3.4398 19.8003 1.23165 24.7171 1.02745 29.9147C1.01457 30.2756 1 30.636 1 31C1.0008 38.7677 4.01485 46.2323 9.40782 51.8226C14.8008 57.413 22.1521 60.6932 29.9147 60.973C24.7171 60.7688 19.8004 58.5606 16.1949 54.8113C12.5895 51.0619 10.5753 46.0625 10.5745 40.8609Z" stroke="#2F2F2F" stroke-width="1.5" stroke-linecap="round" stroke-linejoin="round"/>
<path d="M40.8607 51.4239H30.5479C25.1572 51.4239 20.7872 46.7237 20.7872 41.211V20.7852C15.2227 20.7852 10.5745 25.1552 10.5745 30.546V40.8589C10.5753 46.0606 12.5895 51.06 16.1949 54.8093C19.8004 58.5586 24.7171 60.7668 29.9147 60.971C30.2755 60.9839 30.6359 60.9985 31 60.9985C38.77 60.9977 46.2366 57.9817 51.8274 52.5855C57.4181 47.1894 60.6968 39.8342 60.9728 32.0689C60.7546 37.2631 58.5425 42.1733 54.7966 45.7781C51.0507 49.383 46.0594 51.4051 40.8607 51.4239Z" stroke="#2F2F2F" stroke-width="1.5" stroke-linecap="round" stroke-linejoin="round"/>
<path d="M32.0708 1.02708C31.7147 1.01457 31.3591 1 30.9999 1C23.2323 1.0008 15.7679 4.01489 10.1776 9.40795C4.58733 14.801 1.30713 22.1524 1.02734 29.9151C1.23155 24.7175 3.4397 19.8006 7.18897 16.1952C10.9382 12.5897 15.9376 10.5754 21.1391 10.5746H31.4519C36.8426 10.5746 41.2126 15.2229 41.2126 20.7875V41.2133C46.7253 41.2133 51.4254 36.8433 51.4254 31.4525V21.1396C51.4066 15.9408 49.3846 10.9494 45.7798 7.20345C42.1749 3.45749 37.2649 1.24533 32.0708 1.02708Z" stroke="#2F2F2F" stroke-width="1.5" stroke-linecap="round" stroke-linejoin="round"/>
</svg>
