<svg width="62" height="62" viewBox="0 0 62 62" fill="none" xmlns="http://www.w3.org/2000/svg">
<path d="M48.6138 25.5295L44.8266 21.7422C43.0337 19.9887 40.6177 19.0192 38.11 19.0467C35.6024 19.0743 33.2083 20.0967 31.4544 21.8892L31.0002 22.3434L39.6567 30.9999L40.1109 31.4541C41.9034 33.2081 42.9259 35.6021 42.9534 38.1098C42.981 40.6175 42.0114 43.0334 40.2579 44.8263L36.4707 48.6135C29.4653 55.6189 17.9813 55.4927 10.8203 48.3317L18.0341 55.5455C25.1951 62.7065 36.6791 62.8327 43.6844 55.8273L48.332 51.1798C55.4929 44.0188 55.6191 32.5348 48.6138 25.5295Z" stroke="#090915" stroke-width="1.5" stroke-linecap="round" stroke-linejoin="round"/>
<path d="M13.3864 36.4704L17.1736 40.2577C18.9665 42.0111 21.3825 42.9807 23.8902 42.9532C26.3978 42.9256 28.7919 41.9032 30.5458 40.1107L31 39.6565L22.3435 31L21.8893 30.5457C20.0968 28.7918 19.0744 26.3978 19.0468 23.8901C19.0192 21.3824 19.9888 18.9665 21.7423 17.1736L25.5295 13.3863C32.5349 6.381 44.0189 6.50719 51.1799 13.6682L43.9661 6.4544C36.8051 -0.706595 25.3211 -0.832787 18.3158 6.17256L13.6683 10.8201C6.5073 17.9811 6.38107 29.4651 13.3864 36.4704Z" stroke="#090915" stroke-width="1.5" stroke-linecap="round" stroke-linejoin="round"/>
<path d="M36.4704 48.6136L40.2577 44.8263C42.0112 43.0334 42.9807 40.6175 42.9532 38.1098C42.9256 35.6021 41.9032 33.2081 40.1107 31.4542L39.6565 30.9999L31 39.6565L30.5458 40.1107C28.7918 41.9032 26.3978 42.9256 23.8901 42.9532C21.3824 42.9807 18.9665 42.0111 17.1736 40.2576L13.3863 36.4704C6.381 29.4651 6.50719 17.9811 13.6682 10.8201L6.4544 18.0338C-0.706595 25.1948 -0.832788 36.6789 6.17256 43.6842L10.8201 48.3317C17.9811 55.4927 29.4651 55.6189 36.4704 48.6136Z" stroke="#090915" stroke-width="1.5" stroke-linecap="round" stroke-linejoin="round"/>
<path d="M25.5292 13.3862L21.742 17.1734C19.9885 18.9663 19.0189 21.3822 19.0465 23.8899C19.074 26.3976 20.0965 28.7916 21.8889 30.5456L22.3431 30.9998L30.9997 22.3432L31.4539 21.889C33.2078 20.0966 35.6019 19.0741 38.1095 19.0465C40.6172 19.019 43.0332 19.9886 44.8261 21.7421L48.6133 25.5293C55.6187 32.5346 55.4925 44.0187 48.3315 51.1797L55.5452 43.9659C62.7062 36.8049 62.8324 25.3209 55.8271 18.3155L51.1796 13.668C44.0186 6.50705 32.5346 6.38082 25.5292 13.3862Z" stroke="#090915" stroke-width="1.5" stroke-linecap="round" stroke-linejoin="round"/>
</svg>
