<svg width="60" height="60" viewBox="0 0 60 60" fill="none" xmlns="http://www.w3.org/2000/svg">
<path d="M28.7561 32.6734L24.1914 29.4024L32.8111 3L38.8246 20.2507H32.8117L28.7561 32.6734Z" stroke="#090915" stroke-width="1.5" stroke-linecap="round" stroke-linejoin="round"/>
<path d="M29.2305 31.2257L30.9624 25.9184L59.0003 25.8726L44.2801 36.8628L42.4223 31.2037L29.2305 31.2257Z" stroke="#090915" stroke-width="1.5" stroke-linecap="round" stroke-linejoin="round"/>
<path d="M30.7667 31.2225L36.4025 31.2134L45.1111 57.5877L29.9998 47.1293L34.8643 43.6324L30.7667 31.2225Z" stroke="#090915" stroke-width="1.5" stroke-linecap="round" stroke-linejoin="round"/>
<path d="M31.244 32.6692L32.9945 37.9704L10.3389 54.3163L15.7199 36.8628L20.5844 40.3603L31.244 32.6692Z" stroke="#090915" stroke-width="1.5" stroke-linecap="round" stroke-linejoin="round"/>
<path d="M30.0018 33.5655L25.4482 36.8512L2.73828 20.5798L21.1747 20.2507L19.3169 25.9098L30.0018 33.5655Z" stroke="#090915" stroke-width="1.5" stroke-linecap="round" stroke-linejoin="round"/>
<path d="M27.1877 3L21.1742 20.2507L19.3164 25.9098L24.1915 29.4024L32.8112 3H27.1877Z" stroke="#090915" stroke-width="1.5" stroke-linecap="round" stroke-linejoin="round"/>
<path d="M38.8252 20.2507H32.8123L30.9619 25.9183L58.9998 25.8725L57.2617 20.5792L38.8252 20.2507Z" stroke="#090915" stroke-width="1.5" stroke-linecap="round" stroke-linejoin="round"/>
<path d="M44.2792 36.8628L42.4213 31.2043L36.4023 31.2135L45.1109 57.5879L49.6602 54.3163L44.2792 36.8628Z" stroke="#090915" stroke-width="1.5" stroke-linecap="round" stroke-linejoin="round"/>
<path d="M34.8641 43.6326L32.9945 37.9705L10.3389 54.3163L14.8887 57.5879L29.9995 47.1295L34.8641 43.6326Z" stroke="#090915" stroke-width="1.5" stroke-linecap="round" stroke-linejoin="round"/>
<path d="M2.73814 20.5796L1 25.8723L15.7202 36.8625L20.5841 40.36L25.4481 36.8509L2.73814 20.5796Z" stroke="#090915" stroke-width="1.5" stroke-linecap="round" stroke-linejoin="round"/>
</svg>
