<svg width="60" height="60" viewBox="0 0 60 60" fill="none" xmlns="http://www.w3.org/2000/svg">
<path d="M38.6191 10.5746C37.2948 9.80697 35.5337 9.9947 33.5615 10.9511C34.4111 11.837 35.2549 12.7853 36.0928 13.7959C37.3026 12.9811 38.6857 12.4624 40.1312 12.2813C39.8105 11.5721 39.2833 10.9771 38.6191 10.5746Z" stroke="#090915" stroke-width="1.5" stroke-linecap="round" stroke-linejoin="round"/>
<path d="M23.9075 46.0017C22.6978 46.8165 21.3147 47.3352 19.8691 47.5162C20.1899 48.2255 20.7171 48.8205 21.3813 49.223C22.7056 49.9906 24.4667 49.8028 26.4388 48.8465C25.5892 47.9605 24.7454 47.0123 23.9075 46.0017Z" stroke="#090915" stroke-width="1.5" stroke-linecap="round" stroke-linejoin="round"/>
<path d="M33.4541 44.0559C34.2815 44.7731 35.1639 45.4237 36.0931 46.0016C36.7094 45.2575 37.3192 44.4818 37.9223 43.6746C36.4755 43.8498 34.9861 43.9769 33.4541 44.0559Z" stroke="#090915" stroke-width="1.5" stroke-linecap="round" stroke-linejoin="round"/>
<path d="M23.9074 13.7954C23.291 14.5396 22.6813 15.3153 22.0781 16.1225C23.525 15.9473 25.0144 15.8202 26.5464 15.7412C25.719 15.024 24.8366 14.3734 23.9074 13.7954Z" stroke="#090915" stroke-width="1.5" stroke-linecap="round" stroke-linejoin="round"/>
<path d="M40.8436 43.2477C40.9416 44.7069 40.6975 46.1688 40.1309 47.5162C40.903 47.5919 41.6799 47.4311 42.3592 47.0548C43.6835 46.2872 44.4021 44.6621 44.5632 42.4692C43.3742 42.7649 42.1343 43.0244 40.8436 43.2477Z" stroke="#090915" stroke-width="1.5" stroke-linecap="round" stroke-linejoin="round"/>
<path d="M17.6396 12.7424C16.3153 13.51 15.5967 15.135 15.4355 17.3279C16.6246 17.0322 17.8645 16.7728 19.1551 16.5495C19.0572 15.0903 19.3013 13.6284 19.8679 12.281C19.0958 12.2052 18.3189 12.3661 17.6396 12.7424Z" stroke="#090915" stroke-width="1.5" stroke-linecap="round" stroke-linejoin="round"/>
<path d="M39.0848 35.1639C39.1067 35.126 39.127 35.0881 39.1488 35.0503C39.1707 35.1131 39.1914 35.1752 39.2129 35.2378C39.148 35.2505 39.0839 35.2636 39.0186 35.276C39.0405 35.2382 39.063 35.2017 39.0848 35.1639Z" stroke="#090915" stroke-width="1.5" stroke-linecap="round" stroke-linejoin="round"/>
<path d="M20.9162 24.6331C20.8943 24.671 20.874 24.7089 20.8522 24.7467C20.8303 24.6839 20.8096 24.6218 20.7881 24.5592C20.853 24.5465 20.9172 24.5334 20.9824 24.521C20.9605 24.5587 20.938 24.5953 20.9162 24.6331Z" stroke="#090915" stroke-width="1.5" stroke-linecap="round" stroke-linejoin="round"/>
<path d="M13.0625 27.1443C13.3962 28.0523 13.7605 28.9703 14.1552 29.8983C14.7274 28.5527 15.3625 27.1942 16.0604 25.8228C15.028 26.1835 14.0256 26.6254 13.0625 27.1443Z" stroke="#090915" stroke-width="1.5" stroke-linecap="round" stroke-linejoin="round"/>
<path d="M20.9162 35.1637C20.938 35.2016 20.9607 35.2381 20.9826 35.2759C20.9172 35.2635 20.853 35.2503 20.7881 35.2377C20.8096 35.1751 20.8302 35.113 20.8522 35.0503C20.8739 35.0881 20.8944 35.1259 20.9162 35.1637Z" stroke="#090915" stroke-width="1.5" stroke-linecap="round" stroke-linejoin="round"/>
<path d="M45.8446 29.8984C45.2724 31.2441 44.6373 32.6026 43.9395 33.974C44.9718 33.6132 45.9741 33.1713 46.9373 32.6524C46.6036 31.7445 46.2393 30.8265 45.8446 29.8984Z" stroke="#090915" stroke-width="1.5" stroke-linecap="round" stroke-linejoin="round"/>
<path d="M9.73665 29.8984C9.28524 30.5319 9.03556 31.2878 9.02051 32.0665C9.02051 33.6017 10.063 35.0391 11.874 36.2757C12.2135 35.094 12.6096 33.8863 13.0623 32.6524C11.7546 32.008 10.6156 31.0647 9.73665 29.8984Z" stroke="#090915" stroke-width="1.5" stroke-linecap="round" stroke-linejoin="round"/>
<path d="M37.9219 16.1226C38.7965 17.2929 39.6509 18.5244 40.485 19.8168C40.6899 18.7388 40.8099 17.6464 40.8438 16.5495C39.8938 16.3857 38.9198 16.2434 37.9219 16.1226Z" stroke="#090915" stroke-width="1.5" stroke-linecap="round" stroke-linejoin="round"/>
<path d="M29.9999 19.3676C29.9564 19.3676 29.9136 19.369 29.8701 19.369C29.9134 19.3186 29.9567 19.2696 29.9999 19.2197C30.0431 19.2696 30.0864 19.3185 30.1296 19.3689C30.0862 19.3688 30.0434 19.3676 29.9999 19.3676Z" stroke="#090915" stroke-width="1.5" stroke-linecap="round" stroke-linejoin="round"/>
<path d="M49.2115 18.7625C48.9423 20.3685 48.5796 21.9574 48.1254 23.5209C49.9365 24.7574 50.9789 26.1948 50.9789 27.73C50.9638 28.5087 50.7142 29.2646 50.2628 29.8981C49.3838 31.0645 48.2448 32.0077 46.9371 32.6521C45.9739 33.171 44.9715 33.6129 43.9392 33.9737C43.7378 34.0452 43.5293 34.1135 43.321 34.1819C41.9743 34.6184 40.6019 34.971 39.2118 35.2376C39.1471 35.2502 39.0833 35.2634 39.0182 35.2757C37.193 35.6204 35.3488 35.8544 33.4955 35.9762C32.3586 36.0522 31.1914 36.0928 30.0002 36.0928C28.809 36.0927 27.6418 36.0522 26.5049 35.9761C27.5366 37.5266 28.6605 39.0132 29.8704 40.4278C29.9139 40.4279 29.9566 40.4291 30.0002 40.4291C30.0437 40.429 30.0866 40.4277 30.13 40.4277C32.0715 40.424 33.9682 40.3397 35.8017 40.1807C37.3897 40.0429 38.9273 39.8472 40.4094 39.6035C40.5295 39.5838 40.649 39.5636 40.7681 39.5431C42.0225 39.3286 43.2309 39.0788 44.3935 38.7937C45.8377 38.4401 47.2079 38.0377 48.4824 37.5868C54.9067 35.3144 59.0002 31.8814 59.0002 28.0397C59.0002 24.3462 55.2127 21.0323 49.2115 18.7625Z" stroke="#090915" stroke-width="1.5" stroke-linecap="round" stroke-linejoin="round"/>
<path d="M27.0348 16.1746C26.8717 16.0277 26.7085 15.8806 26.5461 15.7412C25.0167 15.8188 23.5273 15.9459 22.0779 16.1226C21.081 16.2433 20.107 16.3856 19.1559 16.5495C17.8673 16.7717 16.6274 17.0312 15.4364 17.3279C13.8606 17.7147 12.3087 18.1939 10.7887 18.7628C4.78754 21.0326 1 24.3465 1 28.0401V31.7569C1 27.9152 5.09349 24.4822 11.5178 22.2097C12.7923 21.7589 14.1625 21.3565 15.6068 21.0029C16.7675 20.7187 17.976 20.4689 19.2321 20.2535C19.3514 20.2331 19.471 20.213 19.5908 20.193C21.0729 19.9494 22.6106 19.7537 24.1985 19.6159C26.032 19.4569 27.9288 19.3726 29.8702 19.3689C29.9135 19.3185 29.9568 19.2695 30 19.2196C29.075 18.1443 28.0847 17.1273 27.0348 16.1746Z" stroke="#090915" stroke-width="1.5" stroke-linecap="round" stroke-linejoin="round"/>
<path d="M48.1259 23.521C47.7864 24.7027 47.3903 25.9104 46.9375 27.1442C48.2452 27.7887 49.3842 28.7319 50.2632 29.8983C50.7146 29.2648 50.9643 28.5088 50.9794 27.7301C50.9794 26.1949 49.9369 24.7576 48.1259 23.521Z" stroke="#090915" stroke-width="1.5" stroke-linecap="round" stroke-linejoin="round"/>
<path d="M19.5151 39.9802C19.3102 41.0582 19.1902 42.1507 19.1562 43.2476C20.1063 43.4113 21.0803 43.5536 22.0782 43.6744C21.2036 42.504 20.3492 41.2726 19.5151 39.9802Z" stroke="#090915" stroke-width="1.5" stroke-linecap="round" stroke-linejoin="round"/>
<path d="M15.1298 37.9648C15.4651 36.8136 15.8538 35.638 16.2961 34.4381C16.3381 34.3241 16.3805 34.2101 16.4233 34.096C16.9542 32.6855 17.5562 31.2539 18.2293 29.8012C19.0089 28.1275 19.8846 26.4362 20.8521 24.7463C20.8302 24.6836 20.8096 24.6214 20.7882 24.5588C19.3981 24.8254 18.0258 25.178 16.679 25.6144C16.4707 25.6828 16.2622 25.7511 16.0607 25.8227C15.3629 27.1912 14.7279 28.5497 14.1556 29.8982C13.7613 30.8254 13.397 31.7434 13.0629 32.6522C12.6102 33.8838 12.2141 35.0915 11.8746 36.2755C11.4204 37.839 11.0577 39.4279 10.7884 41.0339C9.74585 47.3865 10.7107 52.3366 13.8967 54.1834L17.1029 56.0418C13.7891 54.121 12.8745 48.8454 14.1264 42.1235C14.3748 40.79 14.7127 39.3974 15.1298 37.9648Z" stroke="#090915" stroke-width="1.5" stroke-linecap="round" stroke-linejoin="round"/>
<path d="M29.9999 40.4294C30.0434 40.4294 30.0862 40.428 30.1297 40.428C30.0865 40.4784 30.0431 40.5273 29.9999 40.5773C29.9566 40.5274 29.9133 40.4784 29.8701 40.4281C29.9136 40.4282 29.9563 40.4294 29.9999 40.4294Z" stroke="#090915" stroke-width="1.5" stroke-linecap="round" stroke-linejoin="round"/>
<path d="M39.0838 24.633C39.0621 24.5952 39.0395 24.5586 39.0177 24.5209C38.0438 22.8347 37.0227 21.2277 35.9687 19.713C35.056 18.4013 34.1183 17.1622 33.167 15.9954C33.09 15.9009 33.0129 15.807 32.9357 15.7138C32.1234 14.7304 31.3037 13.8046 30.4765 12.9364C29.4493 11.8574 28.4171 10.8674 27.391 9.98469C22.2185 5.53518 17.2105 3.69256 13.8967 5.61341C10.7107 7.46017 9.74585 12.4102 10.7884 18.7629C12.3084 18.1939 13.8603 17.7148 15.4361 17.328C15.5973 15.1351 16.3159 13.51 17.6402 12.7424C18.3194 12.3661 19.0963 12.2053 19.8685 12.2811C21.314 12.4621 22.6972 12.9808 23.9069 13.7955C24.8361 14.3735 25.7185 15.0241 26.5459 15.7413C26.7083 15.8807 26.8715 16.0278 27.0346 16.1747C28.0845 17.1274 29.0748 18.1443 29.9998 19.2197C30.043 19.2696 30.0863 19.3185 30.1295 19.3689C31.3395 20.7834 32.4634 22.27 33.4951 23.8205C34.1291 24.7709 34.7452 25.7645 35.3433 26.8012C35.9389 27.8369 36.4875 28.872 36.9904 29.8985C37.812 28.2263 38.5323 26.5058 39.1476 24.7464C39.1259 24.7086 39.1056 24.6708 39.0838 24.633Z" stroke="#090915" stroke-width="1.5" stroke-linecap="round" stroke-linejoin="round"/>
<path d="M26.438 48.8461C24.4658 49.8024 22.7047 49.9902 21.3805 49.2226C20.7162 48.8201 20.189 48.2251 19.8683 47.5158C19.3017 46.1685 19.0576 44.7065 19.1555 43.2473C19.1895 42.1504 19.3095 41.058 19.5144 39.98C19.5534 39.7691 19.5988 39.5537 19.6439 39.3384C19.9408 37.9492 20.3229 36.5797 20.788 35.2378C20.8094 35.1752 20.8299 35.1131 20.8518 35.0504C21.467 33.291 22.1874 31.5706 23.009 29.8984C23.5119 28.8718 24.0604 27.8367 24.656 26.801C25.2516 25.7653 25.8702 24.7708 26.5043 23.8203C24.651 23.9421 22.8067 24.176 20.9815 24.5208C20.9597 24.5585 20.9373 24.595 20.9155 24.6329C20.8938 24.6707 20.8735 24.7086 20.8518 24.7464C19.8843 26.4362 19.0086 28.1275 18.229 29.8013C17.5539 31.2508 16.9519 32.6824 16.4231 34.0961C16.38 34.2103 16.3376 34.3243 16.2958 34.4381C15.8537 35.636 15.465 36.8116 15.1296 37.9649C14.7124 39.3975 14.3745 40.79 14.1262 42.1236C12.8743 48.8455 13.7888 54.1211 17.1027 56.0419C20.2887 57.8887 25.0411 56.2525 29.9996 52.1697C28.7488 51.1326 27.5596 50.0228 26.438 48.8461Z" stroke="#090915" stroke-width="1.5" stroke-linecap="round" stroke-linejoin="round"/>
<path d="M32.6086 49.8123C31.5825 48.9296 30.5502 47.9395 29.5231 46.8605C28.6976 45.9933 27.8779 45.0675 27.064 44.0831C26.9868 43.9896 26.9096 43.8957 26.8325 43.8015C25.8813 42.6347 24.9437 41.3956 24.0309 40.0838C22.9769 38.5692 21.9558 36.9622 20.9819 35.276C20.9168 35.2636 20.8529 35.2504 20.7882 35.2378C20.3231 36.5797 19.941 37.9492 19.6441 39.3385C19.599 39.5537 19.5537 39.7691 19.5146 39.9801C20.3463 41.271 21.2007 42.5024 22.0778 43.6743C22.6804 44.4807 23.2901 45.2564 23.907 46.0014C24.743 47.0107 25.5867 47.959 26.4383 48.8462C27.5598 50.0229 28.7491 51.1326 29.9998 52.1698C34.9584 56.2526 39.7107 57.8887 42.8967 56.0419L46.1029 54.1835C42.789 56.1044 37.7811 54.2617 32.6086 49.8123Z" stroke="#090915" stroke-width="1.5" stroke-linecap="round" stroke-linejoin="round"/>
<path d="M48.4822 37.5871C47.2077 38.038 45.8376 38.4404 44.3933 38.794C43.2325 39.0782 42.0241 39.328 40.7679 39.5434C40.6486 39.5638 40.5291 39.5839 40.4092 39.6038C38.9271 39.8475 37.3895 40.0432 35.8016 40.181C33.968 40.34 32.0713 40.4243 30.1299 40.428C30.0866 40.4784 30.0433 40.5273 30 40.5773C30.925 41.6526 31.9153 42.6696 32.9652 43.6223C33.1283 43.7692 33.2915 43.9163 33.4539 44.0557C34.9833 43.9781 36.4727 43.851 37.9221 43.6743C38.919 43.5536 39.893 43.4113 40.8441 43.2474C42.1328 43.0252 43.3726 42.7657 44.5636 42.4689C46.1394 42.0821 47.6913 41.603 49.2113 41.0341C55.2124 38.7643 59 35.4504 59 31.7568V28.04C59 31.8817 54.9065 35.3147 48.4822 37.5871Z" stroke="#090915" stroke-width="1.5" stroke-linecap="round" stroke-linejoin="round"/>
<path d="M37.9216 16.1226C37.319 15.3162 36.7093 14.5406 36.0924 13.7956C35.2564 12.7862 34.4126 11.8379 33.5611 10.9507C32.4396 9.77404 31.2503 8.66428 29.9996 7.62715C25.041 3.54435 20.2886 1.90819 17.1026 3.75499L13.8965 5.61339C17.2103 3.69253 22.2183 5.53516 27.3908 9.98464C28.417 10.8673 29.4491 11.8574 30.4763 12.9363C31.3018 13.8035 32.1215 14.7293 32.9355 15.7138C33.0127 15.8073 33.0898 15.9011 33.1668 15.9953C34.1181 17.1621 35.0558 18.4013 35.9685 19.713C37.0225 21.2277 38.0437 22.8346 39.0175 24.5209C39.0394 24.5586 39.0619 24.5951 39.0836 24.633C39.1054 24.6708 39.1257 24.7086 39.1474 24.7464C39.1692 24.6837 39.1898 24.6216 39.2112 24.5591C39.6763 23.2171 40.0583 21.8477 40.3553 20.4584C40.4003 20.2432 40.4457 20.0277 40.4847 19.8168C39.653 18.5259 38.7987 17.2945 37.9216 16.1226Z" stroke="#090915" stroke-width="1.5" stroke-linecap="round" stroke-linejoin="round"/>
<path d="M46.1028 5.61378L42.8966 3.75537C46.2104 5.6762 47.125 10.9517 45.8731 17.6737C45.6248 19.0072 45.2869 20.3997 44.8697 21.8323C44.5345 22.9835 44.1457 24.1592 43.7035 25.3591C43.6614 25.4731 43.619 25.5871 43.5762 25.7012C43.0453 27.1116 42.4433 28.5432 41.7703 29.9959C40.9907 31.6696 40.115 33.361 39.1475 35.0508C39.1693 35.1136 39.1899 35.1757 39.2113 35.2383C40.6014 34.9717 41.9738 34.6192 43.3206 34.1827C43.5288 34.1143 43.7374 34.046 43.9388 33.9745C44.6365 32.606 45.2716 31.2475 45.8439 29.8989C46.2382 28.9717 46.6025 28.0537 46.9366 27.1449C47.3893 25.9133 47.7854 24.7056 48.125 23.5216C48.5792 21.9581 48.9419 20.3693 49.2111 18.7632C50.2537 12.4106 49.2888 7.46053 46.1028 5.61378Z" stroke="#090915" stroke-width="1.5" stroke-linecap="round" stroke-linejoin="round"/>
<path d="M42.8969 3.75497C39.7109 1.90821 34.9585 3.54435 30 7.62713C31.2508 8.66426 32.44 9.77402 33.5616 10.9507C35.5338 9.99437 37.2949 9.80665 38.6191 10.5743C39.2833 10.9767 39.8105 11.5718 40.1313 12.281C40.6979 13.6283 40.942 15.0903 40.844 16.5495C40.8101 17.6464 40.6901 18.7389 40.4852 19.8169C40.4462 20.0277 40.4008 20.2432 40.3557 20.4584C40.0588 21.8477 39.6767 23.2171 39.2116 24.5591C39.1902 24.6216 39.1697 24.6837 39.1478 24.7464C38.5326 26.5058 37.8122 28.2263 36.9906 29.8985C36.4877 30.925 35.9392 31.9601 35.3436 32.9958C34.748 34.0316 34.1293 35.026 33.4953 35.9765C35.3486 35.8547 37.1928 35.6208 39.0181 35.2761C39.0399 35.2384 39.0623 35.2018 39.084 35.164C39.1058 35.1261 39.1261 35.0882 39.1478 35.0504C40.1153 33.3606 40.991 31.6693 41.7705 29.9955C42.4457 28.546 43.0477 27.1145 43.5765 25.7008C43.6195 25.5865 43.6619 25.4725 43.7037 25.3587C44.1459 24.1609 44.5346 22.9853 44.87 21.8319C45.2871 20.3993 45.625 19.0069 45.8734 17.6733C47.1253 10.9513 46.2107 5.67579 42.8969 3.75497Z" stroke="#090915" stroke-width="1.5" stroke-linecap="round" stroke-linejoin="round"/>
<path d="M49.2117 41.0341C47.6916 41.603 46.1398 42.0821 44.564 42.4689C44.4029 44.6619 43.6842 46.2869 42.36 47.0545C41.6807 47.4308 40.9038 47.5916 40.1316 47.5159C38.6861 47.3348 37.3029 46.8161 36.0932 46.0014C35.164 45.4234 34.2816 44.7728 33.4542 44.0557C33.2918 43.9163 33.1286 43.7692 32.9655 43.6223C31.9156 42.6696 30.9253 41.6526 30.0003 40.5773C29.9571 40.5274 29.9138 40.4784 29.8706 40.4281C28.6606 39.0135 27.5367 37.5269 26.505 35.9764C25.871 35.026 25.2549 34.0324 24.6568 32.9957C24.0612 31.9601 23.5126 30.925 23.0097 29.8984C22.1881 31.5707 21.4678 33.2911 20.8525 35.0505C20.8742 35.0883 20.8946 35.1261 20.9163 35.1639C20.938 35.2017 20.9606 35.2383 20.9824 35.2761C21.9563 36.9623 22.9774 38.5693 24.0314 40.0839C24.9442 41.3957 25.8818 42.6348 26.8331 43.8016C26.9101 43.8961 26.9873 43.9899 27.0645 44.0832C27.8767 45.0665 28.6964 45.9923 29.5236 46.8606C30.5508 47.9395 31.583 48.9296 32.6091 49.8123C37.7816 54.2618 42.7895 56.1044 46.1034 54.1836C49.2894 52.3368 50.2542 47.3867 49.2117 41.0341Z" stroke="#090915" stroke-width="1.5" stroke-linecap="round" stroke-linejoin="round"/>
<path d="M30.1297 19.3688C30.0863 19.3686 30.0435 19.3674 30 19.3674C29.9565 19.3674 29.9137 19.3688 29.8702 19.3689C27.9288 19.3725 26.032 19.4568 24.1984 19.6159C22.6105 19.7536 21.0729 19.9493 19.5908 20.193C19.4707 20.2128 19.3512 20.2329 19.2321 20.2535C17.9777 20.468 16.7693 20.7178 15.6067 21.0029C14.1624 21.3565 12.7923 21.7589 11.5177 22.2097C5.09349 24.4822 1 27.9151 1 31.7568C0.999963 35.4503 4.7875 38.7643 10.7886 41.0341C11.0579 39.428 11.4205 37.8392 11.8748 36.2757C10.0637 35.0391 9.02127 33.6017 9.02127 32.0665C9.03633 31.2878 9.286 30.5319 9.73741 29.8984C10.6164 28.7321 11.7554 27.7889 13.0631 27.1444C14.0262 26.6255 15.0286 26.1836 16.0609 25.8228C16.2623 25.7513 16.4709 25.683 16.6792 25.6146C18.026 25.1781 19.3983 24.8256 20.7884 24.559C20.853 24.5464 20.9169 24.5332 20.982 24.5208C22.8072 24.1761 24.6514 23.9422 26.5047 23.8204C27.6416 23.7444 28.8088 23.7037 30 23.7037C31.1912 23.7037 32.3584 23.7443 33.4953 23.8204C32.4636 22.2699 31.3397 20.7833 30.1297 19.3688Z" stroke="#090915" stroke-width="1.5" stroke-linecap="round" stroke-linejoin="round"/>
</svg>
