<svg width="62" height="62" viewBox="0 0 62 62" fill="none" xmlns="http://www.w3.org/2000/svg">
<path d="M14.6111 18.4883L5.54785 35.3125H14.8361H14.8419L23.9058 18.4883H14.6111Z" stroke="#2F2F2F" stroke-width="1.5" stroke-linecap="round" stroke-linejoin="round"/>
<path d="M33.3249 1L28.6781 9.62664L37.9292 26.7997L42.5765 18.173L33.3249 1Z" stroke="#2F2F2F" stroke-width="1.5" stroke-linecap="round" stroke-linejoin="round"/>
<path d="M14.8395 35.3154L14.8425 35.3086H14.8357L14.8395 35.3154Z" stroke="#2F2F2F" stroke-width="1.5" stroke-linecap="round" stroke-linejoin="round"/>
<path d="M28.6774 9.62891H1L10.1917 26.6917L14.6108 18.4879H23.9055L28.4687 26.8019H37.9291L28.6774 9.62891Z" stroke="#2F2F2F" stroke-width="1.5" stroke-linecap="round" stroke-linejoin="round"/>
<path d="M5.64736 1L1 9.62664H28.6774L33.3248 1H5.64736Z" stroke="#2F2F2F" stroke-width="1.5" stroke-linecap="round" stroke-linejoin="round"/>
<path d="M28.5326 43.9391L23.7978 35.3125L28.4686 26.8024L23.9054 18.4883L14.8416 35.3125L28.6806 61.0019L37.8723 43.9391H28.5326Z" stroke="#2F2F2F" stroke-width="1.5" stroke-linecap="round" stroke-linejoin="round"/>
<path d="M14.8419 35.3086L14.8393 35.3149L14.8361 35.3086H5.54785L19.3869 60.998H28.681L14.8419 35.3086Z" stroke="#2F2F2F" stroke-width="1.5" stroke-linecap="round" stroke-linejoin="round"/>
<path d="M42.5141 35.3086H23.7981L28.5328 43.9352H47.1608L42.5141 35.3086Z" stroke="#2F2F2F" stroke-width="1.5" stroke-linecap="round" stroke-linejoin="round"/>
<path d="M56.3559 9.62891L42.5168 35.3183L47.1609 43.9387L61 18.25L56.3559 9.62891Z" stroke="#2F2F2F" stroke-width="1.5" stroke-linecap="round" stroke-linejoin="round"/>
<path d="M37.9724 9.62891L42.5767 18.1753L37.9293 26.8019H28.4689L23.7981 35.3121H42.5141L56.3557 9.62891H37.9724Z" stroke="#2F2F2F" stroke-width="1.5" stroke-linecap="round" stroke-linejoin="round"/>
</svg>
