<svg width="20" height="20" viewBox="0 0 20 20" fill="none" xmlns="http://www.w3.org/2000/svg">
<g clip-path="url(#clip0_1339_4464)">
<path d="M12.5127 18.5715C13.3924 19.139 14.4408 19.3863 15.4814 19.2719C16.5221 19.1574 17.4916 18.6881 18.227 17.9429L18.8698 17.3143C19.1517 17.026 19.3095 16.6389 19.3095 16.2357C19.3095 15.8326 19.1517 15.4454 18.8698 15.1572L16.1413 12.4572C15.8554 12.1762 15.4706 12.0188 15.0698 12.0188C14.669 12.0188 14.2843 12.1762 13.9984 12.4572V12.4572C13.7101 12.739 13.323 12.8968 12.9198 12.8968C12.5167 12.8968 12.1295 12.739 11.8413 12.4572L7.55554 8.17145C7.41258 8.03056 7.29904 7.86265 7.22155 7.67749C7.14406 7.49233 7.10415 7.29361 7.10415 7.09288C7.10415 6.89216 7.14406 6.69344 7.22155 6.50827C7.29904 6.32311 7.41258 6.1552 7.55554 6.01431V6.01431C7.83648 5.72845 7.9939 5.34368 7.9939 4.94288C7.9939 4.54208 7.83648 4.15732 7.55554 3.87145L4.84126 1.15717C4.55298 0.875332 4.16584 0.717529 3.76269 0.717529C3.35953 0.717529 2.97239 0.875332 2.68412 1.15717L2.05554 1.80002C1.31032 2.53537 0.841022 3.50489 0.726549 4.54555C0.612076 5.58621 0.859414 6.63456 1.42697 7.51431C4.38418 11.8725 8.14688 15.6255 12.5127 18.5715V18.5715Z" stroke="#0668FD" stroke-width="1.5" stroke-linecap="round" stroke-linejoin="round"/>
</g>
<defs>
<clipPath id="clip0_1339_4464">
<rect width="20" height="20" fill="white"/>
</clipPath>
</defs>
</svg>
