<svg width="60" height="62" viewBox="0 0 60 62" fill="none" xmlns="http://www.w3.org/2000/svg">
<path d="M24.4674 40.2691H8.94006L14.4722 31H9.80913L2 44.0083H22.2362L27.7684 53.278L29.9996 49.5382L24.4674 40.2691Z" stroke="#2F2F2F" stroke-width="1.5" stroke-linecap="round" stroke-linejoin="round"/>
<path d="M4.28611 14.082L2 17.9888L9.80913 30.9971H14.4722L4.28611 14.082Z" stroke="#2F2F2F" stroke-width="1.5" stroke-linecap="round" stroke-linejoin="round"/>
<path d="M55.7136 14.082H40.0953L37.7634 17.9888H57.9997L55.7136 14.082Z" stroke="#2F2F2F" stroke-width="1.5" stroke-linecap="round" stroke-linejoin="round"/>
<path d="M32.2861 1L22.2366 17.9916H11.1716L13.4035 21.7307H24.4678L32.2318 8.72184L37.764 17.9916L40.0959 14.0848L32.2861 1Z" stroke="#2F2F2F" stroke-width="1.5" stroke-linecap="round" stroke-linejoin="round"/>
<path d="M32.2856 1H27.7141L19.9043 14.0848L22.2362 17.9916L32.2856 1Z" stroke="#2F2F2F" stroke-width="1.5" stroke-linecap="round" stroke-linejoin="round"/>
<path d="M11.1713 17.9888H22.2363L19.9044 14.082H4.28613L14.4723 30.9971L8.94009 40.2662H13.4031L18.9353 30.9971L11.1713 17.9888Z" stroke="#2F2F2F" stroke-width="1.5" stroke-linecap="round" stroke-linejoin="round"/>
<path d="M46.5961 40.2695H35.5317L27.7684 53.2784L22.2362 44.0087L19.9043 47.9155L27.7141 60.9996L37.7635 44.0087H48.8279L46.5961 40.2695Z" stroke="#2F2F2F" stroke-width="1.5" stroke-linecap="round" stroke-linejoin="round"/>
<path d="M2 44.0078L4.28545 47.9146H19.9044L22.2362 44.0078H2Z" stroke="#2F2F2F" stroke-width="1.5" stroke-linecap="round" stroke-linejoin="round"/>
<path d="M50.1907 31H45.5276L55.7137 47.9151L57.9998 44.0083L50.1907 31Z" stroke="#2F2F2F" stroke-width="1.5" stroke-linecap="round" stroke-linejoin="round"/>
<path d="M37.7638 17.9885L32.2316 8.71875L29.9998 12.4585L35.5319 21.7277H51.0599L45.5278 30.9968H50.1909L58 17.9885H37.7638Z" stroke="#2F2F2F" stroke-width="1.5" stroke-linecap="round" stroke-linejoin="round"/>
<path d="M45.5274 30.9996L51.0596 21.7305H46.5959L41.0644 30.9996L48.8278 44.0079H37.7634L40.0953 47.9146H55.7136L45.5274 30.9996Z" stroke="#2F2F2F" stroke-width="1.5" stroke-linecap="round" stroke-linejoin="round"/>
<path d="M37.7641 44.0078L27.7146 60.9988H32.2862L40.0959 47.9146L37.7641 44.0078Z" stroke="#2F2F2F" stroke-width="1.5" stroke-linecap="round" stroke-linejoin="round"/>
</svg>
