<svg width="62" height="60" viewBox="0 0 62 60" fill="none" xmlns="http://www.w3.org/2000/svg">
<path d="M12.0212 31.8013C13.4488 30.1397 15.0948 28.6768 16.9149 27.4524C17.3699 27.1466 17.837 26.8652 18.308 26.5924C22.168 24.3791 26.5451 23.2141 31.0003 23.2141C35.4556 23.2141 39.8327 24.3791 43.6927 26.5924C43.6882 26.0548 43.6743 25.516 43.6329 24.9754C43.4658 22.8072 43.0024 20.6718 42.2556 18.6281C34.9932 15.9522 27.0075 15.9521 19.745 18.6278C17.4157 19.4877 15.1976 20.6205 13.1376 22.0023C12.698 22.2977 12.2706 22.6064 11.8489 22.9215C8.49421 25.429 5.68063 28.582 3.57551 32.193C0.531172 37.3847 -0.0165563 44.5192 3.0277 49.7109C6.07202 54.9032 12.62 58.0027 18.7085 58.0027C22.9266 58.0156 27.105 57.1932 31.0003 55.5834C30.5523 55.3979 30.1076 55.2023 29.6662 54.9965L29.6334 54.982C29.6053 54.9688 29.5762 54.9579 29.5481 54.9446C27.3072 53.8814 25.2017 52.5562 23.2763 50.9968C21.7689 51.2673 20.2403 51.4037 18.7085 51.4043C15.0426 51.4043 10.6639 49.5382 8.83102 46.4117C6.99802 43.2858 7.54505 38.6193 9.37867 35.4929C10.146 34.1858 11.0305 32.9502 12.0212 31.8013Z" stroke="#2F2F2F" stroke-width="1.5" stroke-miterlimit="10"/>
<path d="M50.3154 24.475C50.2753 23.9528 50.2176 23.4341 50.1513 22.9173C49.6192 18.79 48.2523 14.8128 46.1331 11.2254C43.0888 6.03378 37.0879 2 31 2C24.9121 2 18.9112 6.03506 15.8669 11.2261C13.7476 14.8132 12.3807 18.7903 11.8486 22.9173C12.2703 22.6022 12.6978 22.2935 13.1373 21.9981C15.1973 20.6163 17.4154 19.4835 19.7447 18.6236C20.2608 17.2026 20.9052 15.8311 21.6701 14.5259C23.5031 11.4001 27.334 8.59835 31 8.59835C34.6661 8.59835 38.4968 11.3988 40.3298 14.5253C41.0949 15.8308 41.7394 17.2026 42.2554 18.6239C43.0021 20.6676 43.4655 22.803 43.6326 24.9712C43.674 25.5118 43.6879 26.0506 43.6924 26.5882C43.7038 30.9936 42.5336 35.3222 40.3025 39.1276C38.0714 42.933 34.8601 46.0774 31 48.2364C31.4751 48.5015 31.9559 48.759 32.4521 48.994C34.4438 49.9355 36.5531 50.6076 38.7239 50.9926C44.6923 46.1645 48.6925 39.3422 49.979 31.7972C50.3876 29.3789 50.5006 26.9203 50.3154 24.475Z" stroke="#2F2F2F" stroke-width="1.5" stroke-miterlimit="10"/>
<path d="M58.4247 32.1901C56.3197 28.5788 53.506 25.4255 50.1511 22.918C50.2174 23.4348 50.2751 23.9535 50.3152 24.4757C50.5004 26.921 50.3874 29.3796 49.9788 31.7979C50.9696 32.9469 51.8541 34.1826 52.6213 35.49C54.4544 38.6158 55.0021 43.2823 53.1692 46.4082C51.3361 49.5346 46.9575 51.4008 43.2915 51.4008C41.7598 51.4002 40.2312 51.2638 38.7238 50.9933C36.5529 50.6083 34.4436 49.9362 32.452 48.9947C31.9558 48.7596 31.475 48.5022 30.9999 48.2371C27.1398 46.0781 23.9285 42.9338 21.6974 39.1284C19.4663 35.323 18.2961 30.9943 18.3075 26.5889C17.8365 26.8617 17.3694 27.1431 16.9145 27.4489C15.0943 28.6734 13.4483 30.1362 12.0208 31.7979C13.3072 39.3429 17.3075 46.1652 23.2759 50.9933C25.2013 52.5527 27.3067 53.8779 29.5477 54.9411C29.5758 54.9544 29.6048 54.9653 29.633 54.9785C29.6439 54.9836 29.655 54.9879 29.6658 54.993C30.1069 55.1996 30.5516 55.3952 30.9999 55.5799C34.8951 57.1897 39.0735 58.0121 43.2915 57.9992C49.3802 57.9992 55.9281 54.8997 58.9723 49.7074C62.0167 44.5157 61.4683 37.3812 58.4247 32.1901Z" stroke="#2F2F2F" stroke-width="1.5" stroke-miterlimit="10"/>
</svg>
