<svg width="42" height="42" viewBox="0 0 42 42" fill="none" xmlns="http://www.w3.org/2000/svg">
<path d="M32.7422 17.353L30.2174 14.8282C29.0221 13.6592 27.4115 13.0128 25.7398 13.0311C24.068 13.0495 22.472 13.7312 21.3027 14.9261L20.9999 15.229L26.7709 21L27.0737 21.3029C28.2686 22.4722 28.9503 24.0682 28.9686 25.74C28.987 27.4118 28.3406 29.0225 27.1716 30.2177L24.6469 32.7426C19.9767 37.4129 12.3208 37.3288 7.54688 32.5547L12.356 37.3639C17.1299 42.138 24.7858 42.2221 29.456 37.5518L32.5543 34.4535C37.3282 29.6794 37.4123 22.0233 32.7422 17.353Z" stroke="#090915" stroke-linecap="round" stroke-linejoin="round"/>
<path d="M9.25739 24.6472L11.7822 27.1721C12.9774 28.3411 14.588 28.9875 16.2598 28.9691C17.9315 28.9507 19.5276 28.2691 20.6968 27.0741L20.9996 26.7713L15.2287 21.0002L14.9259 20.6974C13.7309 19.5281 13.0493 17.932 13.0309 16.2602C13.0125 14.5884 13.6589 12.9778 14.8279 11.7825L17.3527 9.25766C22.0229 4.58737 29.6788 4.6715 34.4527 9.44555L29.6436 4.63631C24.8696 -0.137743 17.2137 -0.221873 12.5436 4.44841L9.44529 7.5468C4.67138 12.3208 4.58723 19.9769 9.25739 24.6472Z" stroke="#090915" stroke-linecap="round" stroke-linejoin="round"/>
<path d="M24.6466 32.7428L27.1714 30.218C28.3404 29.0227 28.9867 27.4121 28.9684 25.7402C28.95 24.0684 28.2684 22.4724 27.0734 21.3031L26.7706 21.0003L20.9997 26.7714L20.6969 27.0742C19.5276 28.2692 17.9316 28.9508 16.2598 28.9692C14.5881 28.9876 12.9775 28.3412 11.7822 27.1722L9.25744 24.6473C4.58728 19.977 4.6714 12.3209 9.44533 7.54688L4.63621 12.3561C-0.137713 17.1302 -0.22184 24.7863 4.44832 29.4565L7.54663 32.5549C12.3205 37.329 19.9764 37.4131 24.6466 32.7428Z" stroke="#090915" stroke-linecap="round" stroke-linejoin="round"/>
<path d="M17.3534 9.25748L14.8286 11.7823C13.6596 12.9776 13.0133 14.5883 13.0316 16.2601C13.05 17.9319 13.7316 19.5279 14.9266 20.6972L15.2294 21L21.0003 15.2289L21.3031 14.9261C22.4724 13.7311 24.0684 13.0495 25.7402 13.0311C27.4119 13.0127 29.0225 13.6591 30.2178 14.8282L32.7426 17.353C37.4127 22.0233 37.3286 29.6794 32.5547 34.4534L37.3638 29.6442C42.1377 24.8702 42.2218 17.2141 37.5517 12.5438L34.4534 9.44538C29.6795 4.67136 22.0236 4.5872 17.3534 9.25748Z" stroke="#090915" stroke-linecap="round" stroke-linejoin="round"/>
</svg>
