<svg width="60" height="60" viewBox="0 0 60 60" fill="none" xmlns="http://www.w3.org/2000/svg">
<path d="M6.42829 25.7142H10.714C11.2823 25.7142 11.8274 25.94 12.2292 26.3419C12.6311 26.7437 12.8569 27.2888 12.8569 27.8571V38.5714C12.8569 39.1397 12.6311 39.6847 12.2292 40.0866C11.8274 40.4885 11.2823 40.7142 10.714 40.7142H6.42829C5.29165 40.7142 4.20156 40.2627 3.39783 39.459C2.59411 38.6552 2.14258 37.5652 2.14258 36.4285V29.9999C2.14258 28.8633 2.59411 27.7732 3.39783 26.9695C4.20156 26.1658 5.29165 25.7142 6.42829 25.7142V25.7142Z" stroke="#0668FD" stroke-width="2" stroke-linecap="round" stroke-linejoin="round"/>
<path d="M53.5707 40.7142H49.285C48.7167 40.7142 48.1717 40.4885 47.7698 40.0866C47.3679 39.6847 47.1422 39.1397 47.1422 38.5714V27.8571C47.1422 27.2888 47.3679 26.7437 47.7698 26.3419C48.1717 25.94 48.7167 25.7142 49.285 25.7142H53.5707C54.7074 25.7142 55.7975 26.1658 56.6012 26.9695C57.4049 27.7732 57.8564 28.8633 57.8564 29.9999V36.4285C57.8564 37.5652 57.4049 38.6552 56.6012 39.459C55.7975 40.2627 54.7074 40.7142 53.5707 40.7142V40.7142Z" stroke="#0668FD" stroke-width="2" stroke-linecap="round" stroke-linejoin="round"/>
<path d="M40.7139 52.4999C42.9872 52.4999 45.1673 51.5969 46.7748 49.9894C48.3822 48.382 49.2853 46.2018 49.2853 43.9285V40.7142" stroke="#0668FD" stroke-width="2" stroke-linecap="round" stroke-linejoin="round"/>
<path d="M35.357 47.1428C36.7778 47.1428 38.1404 47.7072 39.1451 48.7119C40.1497 49.7166 40.7141 51.0792 40.7141 52.5C40.7141 53.9208 40.1497 55.2834 39.1451 56.288C38.1404 57.2927 36.7778 57.8571 35.357 57.8571H28.9284C27.5076 57.8571 26.145 57.2927 25.1404 56.288C24.1357 55.2834 23.5713 53.9208 23.5713 52.5C23.5713 51.0792 24.1357 49.7166 25.1404 48.7119C26.145 47.7072 27.5076 47.1428 28.9284 47.1428H35.357Z" stroke="#0668FD" stroke-width="2" stroke-linecap="round" stroke-linejoin="round"/>
<path d="M10.7139 25.7143V21.4285C10.7139 16.3136 12.7457 11.4082 16.3625 7.79148C19.9793 4.1747 24.8847 2.14282 29.9996 2.14282C35.1145 2.14282 40.0199 4.1747 43.6366 7.79148C47.2534 11.4082 49.2853 16.3136 49.2853 21.4285V25.7143" stroke="#0668FD" stroke-width="2" stroke-linecap="round" stroke-linejoin="round"/>
<path d="M23.5713 17.1428V23.5714" stroke="#0668FD" stroke-width="2" stroke-linecap="round" stroke-linejoin="round"/>
<path d="M36.4287 17.1428V23.5714" stroke="#0668FD" stroke-width="2" stroke-linecap="round" stroke-linejoin="round"/>
<path d="M23.5713 32.1428C23.5713 37.8428 36.4284 37.8428 36.4284 32.1428" stroke="#0668FD" stroke-width="2" stroke-linecap="round" stroke-linejoin="round"/>
</svg>
