<svg width="60" height="60" viewBox="0 0 60 60" fill="none" xmlns="http://www.w3.org/2000/svg">
<path d="M44.9997 8.57141H55.714C56.2823 8.57141 56.8274 8.79718 57.2292 9.19904C57.6311 9.6009 57.8569 10.1459 57.8569 10.7143V45C57.8569 45.5683 57.6311 46.1134 57.2292 46.5152C56.8274 46.9171 56.2823 47.1428 55.714 47.1428H4.28544C3.71711 47.1428 3.17207 46.9171 2.77021 46.5152C2.36834 46.1134 2.14258 45.5683 2.14258 45V10.7143C2.14258 10.1459 2.36834 9.6009 2.77021 9.19904C3.17207 8.79718 3.71711 8.57141 4.28544 8.57141H14.9997" stroke="#0668FD" stroke-width="2" stroke-linecap="round" stroke-linejoin="round"/>
<path d="M25.7144 47.1428L21.4287 57.8571" stroke="#0668FD" stroke-width="2" stroke-linecap="round" stroke-linejoin="round"/>
<path d="M34.2852 47.1428L38.5709 57.8571" stroke="#0668FD" stroke-width="2" stroke-linecap="round" stroke-linejoin="round"/>
<path d="M17.1426 57.8572H42.8569" stroke="#0668FD" stroke-width="2" stroke-linecap="round" stroke-linejoin="round"/>
<path d="M38.5716 23.5714H21.4287V36.4286H38.5716V23.5714Z" stroke="#0668FD" stroke-width="2" stroke-linecap="round" stroke-linejoin="round"/>
<path d="M23.571 23.5715V19.2857C23.571 17.5808 24.2483 15.9457 25.4539 14.7401C26.6595 13.5345 28.2947 12.8572 29.9996 12.8572C31.7046 12.8572 33.3397 13.5345 34.5453 14.7401C35.7509 15.9457 36.4282 17.5808 36.4282 19.2857V23.5715" stroke="#0668FD" stroke-width="2" stroke-linecap="round" stroke-linejoin="round"/>
</svg>
