<svg width="42" height="42" viewBox="0 0 42 42" fill="none" xmlns="http://www.w3.org/2000/svg">
<path d="M32.7421 17.353L30.2174 14.8282C29.0221 13.6592 27.4115 13.0128 25.7397 13.0311C24.068 13.0495 22.472 13.7312 21.3027 14.9261L20.9999 15.2289L26.7708 21L27.0736 21.3028C28.2686 22.4721 28.9502 24.0682 28.9686 25.74C28.987 27.4118 28.3406 29.0224 27.1716 30.2177L24.6468 32.7425C19.9767 37.4128 12.3208 37.3287 7.54688 32.5546L12.356 37.3639C17.1299 42.1379 24.7858 42.222 29.456 37.5517L32.5542 34.4534C37.3281 29.6794 37.4123 22.0233 32.7421 17.353Z" stroke="#090915" stroke-linecap="round" stroke-linejoin="round"/>
<path d="M9.25788 24.6471L11.7827 27.172C12.9779 28.341 14.5885 28.9874 16.2603 28.969C17.932 28.9506 19.528 28.269 20.6973 27.074L21.0001 26.7712L15.2292 21.0001L14.9264 20.6973C13.7314 19.528 13.0498 17.932 13.0314 16.2602C13.013 14.5884 13.6594 12.9777 14.8284 11.7825L17.3532 9.25763C22.0233 4.58736 29.6792 4.67149 34.4531 9.44552L29.644 4.6363C24.8701 -0.137739 17.2142 -0.221868 12.5441 4.4484L9.44578 7.54677C4.67187 12.3208 4.58772 19.9769 9.25788 24.6471Z" stroke="#090915" stroke-linecap="round" stroke-linejoin="round"/>
<path d="M24.6466 32.7427L27.1714 30.2179C28.3403 29.0226 28.9867 27.412 28.9683 25.7402C28.95 24.0684 28.2684 22.4723 27.0734 21.303L26.7706 21.0002L20.9997 26.7713L20.6969 27.0741C19.5276 28.2691 17.9316 28.9507 16.2598 28.9691C14.5881 28.9875 12.9775 28.3411 11.7822 27.1721L9.25743 24.6472C4.58728 19.977 4.6714 12.3209 9.44532 7.54688L4.63621 12.3561C-0.137712 17.1301 -0.221839 24.7862 4.44832 29.4565L7.54662 32.5548C12.3205 37.3288 19.9764 37.413 24.6466 32.7427Z" stroke="#090915" stroke-linecap="round" stroke-linejoin="round"/>
<path d="M17.3531 9.25747L14.8284 11.7823C13.6594 12.9776 13.013 14.5882 13.0314 16.26C13.0498 17.9318 13.7314 19.5279 14.9263 20.6972L15.2291 21L21.0001 15.2289L21.3029 14.9261C22.4721 13.7311 24.0681 13.0495 25.7399 13.0311C27.4117 13.0127 29.0223 13.6591 30.2175 14.8281L32.7423 17.353C37.4125 22.0232 37.3283 29.6793 32.5544 34.4533L37.3635 29.6441C42.1374 24.8701 42.2216 17.214 37.5514 12.5437L34.4531 9.44537C29.6792 4.67136 22.0233 4.58721 17.3531 9.25747Z" stroke="#090915" stroke-linecap="round" stroke-linejoin="round"/>
</svg>
