<svg width="40" height="40" viewBox="0 0 40 40" fill="none" xmlns="http://www.w3.org/2000/svg">
<path d="M19.1711 21.7823L16.1279 19.6016L21.8744 2L25.8834 13.5005H21.8748L19.1711 21.7823Z" stroke="#090915" stroke-linecap="round" stroke-linejoin="round"/>
<path d="M19.4863 20.8173L20.641 17.2791L39.3329 17.2485L29.5194 24.5754L28.2809 20.8026L19.4863 20.8173Z" stroke="#090915" stroke-linecap="round" stroke-linejoin="round"/>
<path d="M20.5113 20.8152L24.2685 20.8091L30.0742 38.392L20 31.4197L23.243 29.0884L20.5113 20.8152Z" stroke="#090915" stroke-linecap="round" stroke-linejoin="round"/>
<path d="M20.8293 21.7793L21.9963 25.3135L6.89258 36.2107L10.4799 24.575L13.723 26.9067L20.8293 21.7793Z" stroke="#090915" stroke-linecap="round" stroke-linejoin="round"/>
<path d="M20.0009 22.377L16.9651 24.5675L1.8252 13.7199L14.1162 13.5005L12.8776 17.2732L20.0009 22.377Z" stroke="#090915" stroke-linecap="round" stroke-linejoin="round"/>
<path d="M18.1255 2L14.1165 13.5005L12.8779 17.2732L16.128 19.6016L21.8744 2H18.1255Z" stroke="#090915" stroke-linecap="round" stroke-linejoin="round"/>
<path d="M25.8828 13.5005H21.8742L20.6406 17.2789L39.3325 17.2484L38.1738 13.7195L25.8828 13.5005Z" stroke="#090915" stroke-linecap="round" stroke-linejoin="round"/>
<path d="M29.5198 24.575L28.2812 20.8027L24.2686 20.8088L30.0743 38.3917L33.1071 36.2107L29.5198 24.575Z" stroke="#090915" stroke-linecap="round" stroke-linejoin="round"/>
<path d="M23.2427 29.0882L21.9963 25.3135L6.89258 36.2107L9.92583 38.3918L19.9997 31.4195L23.2427 29.0882Z" stroke="#090915" stroke-linecap="round" stroke-linejoin="round"/>
<path d="M1.82575 13.7197L0.666992 17.2482L10.4804 24.575L13.7231 26.9067L16.9657 24.5673L1.82575 13.7197Z" stroke="#090915" stroke-linecap="round" stroke-linejoin="round"/>
</svg>
