<svg width="50" height="50" viewBox="0 0 50 50" fill="none" xmlns="http://www.w3.org/2000/svg">
<circle cx="25" cy="25" r="25" fill="#0668FD"/>
<path d="M33.7738 37.0008C32.9109 37.0008 32.0992 36.6622 31.4895 36.0479C30.8787 35.4341 30.543 34.6172 30.543 33.7476C30.543 32.8794 30.8787 32.0626 31.4879 31.4492C32.0982 30.8345 32.9098 30.4958 33.7726 30.4958C34.6351 30.4958 35.4461 30.8334 36.0554 31.4478C37.3148 32.7166 37.3148 34.7811 36.0554 36.0495C35.4461 36.6632 34.6357 37.0008 33.7738 37.0008Z" fill="white"/>
<path d="M16.2308 19.6556C15.3679 19.6556 14.5565 19.3169 13.9461 18.7022C13.3362 18.0884 13 17.2715 13 16.4023C13 15.5335 13.3354 14.7173 13.9447 14.1042C14.5554 13.4888 15.3673 13.1501 16.2304 13.1501C17.0924 13.1501 17.9033 13.4881 18.5123 14.1021C19.123 14.7169 19.4592 15.5342 19.4592 16.403C19.4592 17.2722 19.1232 18.089 18.5129 18.7038C17.9033 19.3173 17.0928 19.6556 16.2308 19.6556Z" fill="white"/>
<path d="M33.6303 19.5602C32.7667 19.5602 31.9559 19.2216 31.346 18.6072C30.0873 17.3388 30.0863 15.2754 31.3442 14.008C31.9545 13.3932 32.7659 13.0542 33.6295 13.0542C34.4918 13.0542 35.3028 13.3928 35.9128 14.007C37.1715 15.2748 37.1715 17.3392 35.9128 18.6091C35.3032 19.222 34.4922 19.5602 33.6303 19.5602Z" fill="white"/>
<path d="M16.3152 36.9995C15.4522 36.9995 14.6408 36.6608 14.0299 36.0465C13.4199 35.4323 13.0843 34.6159 13.085 33.7466C13.085 32.8779 13.4218 32.0612 14.0319 31.4468C14.1596 31.3173 14.3036 31.1988 14.4868 31.0743C14.5418 31.0356 14.5928 31.0048 14.6453 30.9725C14.7649 30.9034 14.884 30.8403 14.9951 30.789C15.0557 30.7617 15.1177 30.7336 15.1832 30.7086C15.2992 30.6651 15.4288 30.6264 15.5769 30.5911C15.6065 30.583 15.6325 30.576 15.659 30.5683C15.6757 30.5638 15.6917 30.5582 15.7085 30.5542L16.4275 30.505C16.5187 30.5089 16.6163 30.5205 16.7204 30.5342L16.7614 30.5398C16.7859 30.5427 16.8189 30.5454 16.852 30.5472L16.881 30.5493L16.9138 30.5559H16.9424C16.9949 30.558 17.0475 30.5588 17.0995 30.5588C18.3387 30.5588 19.5618 30.0272 20.4558 29.1011C21.3459 28.1789 21.8361 26.9384 21.801 25.6967L21.7999 25.6598L21.7931 25.6214C21.7864 25.5866 21.7845 25.5514 21.7821 25.5165C21.779 25.4747 21.7755 25.4333 21.7704 25.3915L21.7623 25.3185C21.7554 25.2561 21.7484 25.195 21.7443 25.1326L21.7993 24.4061C21.8028 24.3879 21.8094 24.3713 21.8143 24.3535L21.8272 24.3087C21.8605 24.1711 21.8958 24.0329 21.9474 23.8993C21.9739 23.8234 21.9993 23.7673 22.0269 23.7098C22.0844 23.5828 22.1439 23.4674 22.2139 23.3491C22.2443 23.2978 22.2739 23.2456 22.309 23.1954C22.4394 23.0038 22.5581 22.8574 22.6812 22.7332C23.2911 22.1189 24.1019 21.7809 24.9659 21.7809C25.8282 21.7809 26.6402 22.1185 27.2506 22.7322C28.5082 24.0007 28.5074 26.0647 27.2477 27.3333C27.1204 27.462 26.976 27.5799 26.7924 27.7063C26.7388 27.7431 26.6879 27.7737 26.6367 27.8041C26.5207 27.874 26.4036 27.9361 26.2872 27.9901C26.2242 28.0186 26.1611 28.048 26.1001 28.0705C25.9765 28.1169 25.8455 28.1562 25.7079 28.1874L25.6304 28.2091C25.6128 28.2141 25.5957 28.2197 25.5783 28.2242L24.8523 28.2761C24.7673 28.2726 24.6781 28.2611 24.5837 28.2488L24.5192 28.2408C24.4976 28.2373 24.4637 28.2348 24.4297 28.2327L24.4042 28.2302L24.3672 28.223H24.3383C24.2853 28.2211 24.2331 28.2205 24.1807 28.2205C22.9416 28.2205 21.7188 28.7515 20.8255 29.6778C19.935 30.6004 19.4446 31.8421 19.4797 33.0837L19.4807 33.1205L19.4875 33.1573C19.4943 33.1927 19.4957 33.2274 19.4986 33.2626C19.5015 33.3046 19.5052 33.3458 19.5101 33.3871C19.5115 33.4118 19.5164 33.4566 19.522 33.5005C19.5273 33.5503 19.5339 33.5987 19.5339 33.6486V33.6664L19.4817 34.3627C19.4785 34.3774 19.4552 34.4576 19.4487 34.4826C19.4138 34.6328 19.3743 34.7658 19.3302 34.8854C19.3061 34.952 19.2817 35.0093 19.2532 35.0693C19.1971 35.1928 19.1361 35.3113 19.0671 35.4317C19.0367 35.4809 19.0008 35.5388 18.9642 35.5945C18.8441 35.7699 18.725 35.9174 18.5974 36.0465C17.9889 36.6602 17.1781 36.9988 16.3156 36.9988H16.3152V36.9995Z" fill="white"/>
<path d="M25.0359 36.9997C24.1724 36.9997 23.361 36.6611 22.7506 36.0463C22.1409 35.4321 21.8051 34.6157 21.8047 33.7465C21.8043 32.8783 22.1398 32.0618 22.7492 31.4491C22.8736 31.3231 23.0149 31.2073 23.208 31.0728C23.2558 31.0402 23.3074 31.0083 23.3614 30.9771C23.4799 30.9055 23.5941 30.8451 23.7125 30.7901C23.7756 30.7613 23.8372 30.7328 23.8998 30.709C24.0198 30.6645 24.1504 30.6258 24.289 30.595C24.289 30.595 24.4026 30.5617 24.4172 30.5582L25.1474 30.5044C25.2337 30.5083 25.3265 30.521 25.4239 30.5336L25.4779 30.5408C25.5138 30.5443 25.5438 30.5472 25.574 30.5478C25.5859 30.5489 25.598 30.5489 25.6095 30.5499L25.6325 30.553L25.6629 30.5561C25.7163 30.5576 25.7705 30.559 25.8239 30.559C27.0607 30.5586 28.282 30.0278 29.1739 29.1027C30.0639 28.1812 30.5542 26.939 30.519 25.6975L30.5145 25.5459L30.5012 25.5291C30.5006 25.5241 30.5005 25.5182 30.5001 25.5126C30.4983 25.4772 30.4962 25.4416 30.4927 25.4058L30.4808 25.3016C30.4743 25.2443 30.4669 25.1878 30.4648 25.1303L30.5149 24.4264C30.5188 24.4092 30.5441 24.3221 30.5498 24.2958C30.5909 24.1277 30.6269 24.0046 30.6679 23.8952C30.6909 23.8298 30.7191 23.7698 30.7474 23.7067C30.799 23.5934 30.8595 23.4779 30.9335 23.3509L30.9474 23.3278C30.9723 23.2849 30.9963 23.2427 31.0259 23.2014C31.1581 23.0073 31.2756 22.8613 31.3996 22.7364C32.0102 22.1216 32.822 21.783 33.685 21.783C34.5473 21.783 35.3579 22.121 35.9678 22.7349C37.2263 24.0027 37.2263 26.0678 35.9678 27.337C35.8456 27.4595 35.7 27.578 35.5105 27.7098C35.4739 27.735 35.439 27.7561 35.4041 27.7772L35.3476 27.8126C35.2396 27.8771 35.1219 27.9392 35.0073 27.9921C34.9426 28.0213 34.8819 28.0494 34.8176 28.0736C34.7046 28.1167 34.58 28.1529 34.4229 28.1907C34.3914 28.1982 34.366 28.2062 34.3407 28.2139C34.3231 28.2184 34.3066 28.2238 34.2896 28.228L33.5718 28.2778C33.4667 28.2733 33.3531 28.2577 33.243 28.2431C33.2054 28.2385 33.1765 28.2371 33.1479 28.2354C33.1371 28.235 33.1262 28.235 33.1151 28.2333L33.0539 28.2269C33.0005 28.2249 32.9475 28.2238 32.8945 28.2238C31.6568 28.2238 30.4357 28.755 29.5425 29.6801C28.6531 30.6027 28.1633 31.844 28.1994 33.0866L28.2004 33.123L28.2074 33.1588C28.2144 33.1956 28.2158 33.2332 28.2185 33.2701C28.221 33.3083 28.2238 33.3458 28.228 33.3824C28.2304 33.4132 28.2349 33.4525 28.2391 33.4906C28.2456 33.5456 28.2522 33.601 28.2536 33.6558L28.2006 34.3697C28.1967 34.3854 28.169 34.4816 28.169 34.4816C28.1345 34.6328 28.0961 34.7652 28.0505 34.8897C28.029 34.9483 28.0035 35.0048 27.9774 35.0637L27.9684 35.0844C27.915 35.2006 27.8548 35.3157 27.7876 35.428C27.7548 35.4834 27.7221 35.5378 27.6876 35.5893C27.5611 35.7743 27.4418 35.9213 27.3145 36.0508C26.7072 36.6621 25.8979 36.9997 25.0359 36.9997Z" fill="white"/>
<path d="M16.3158 28.2173C15.4528 28.2173 14.6416 27.8793 14.0319 27.2653C13.4218 26.6501 13.0856 25.8332 13.085 24.964C13.0846 24.0957 13.4195 23.2798 14.0294 22.6661C14.1545 22.5401 14.3001 22.4212 14.4874 22.2911C14.5363 22.258 14.5913 22.224 14.6464 22.1907C14.7581 22.1243 14.8721 22.0633 14.9936 22.0068C15.0561 21.9781 15.1181 21.9499 15.184 21.9251C15.3027 21.8813 15.4337 21.8424 15.5703 21.8118L15.6525 21.7886C15.6677 21.7841 15.6822 21.7791 15.6972 21.7756L16.4281 21.7226C16.523 21.7265 16.6257 21.7402 16.7333 21.7549L16.7559 21.758C16.7935 21.7619 16.8224 21.7636 16.852 21.765C16.8625 21.7654 16.873 21.7654 16.8834 21.7671L16.9149 21.7727L16.9444 21.7737C16.9986 21.7752 17.052 21.7762 17.1054 21.7762C18.3417 21.7762 19.5629 21.2456 20.4554 20.3199C21.345 19.3974 21.8348 18.1556 21.7991 16.9136L21.7981 16.8778L21.7911 16.8425C21.7835 16.8032 21.7827 16.7632 21.78 16.7229C21.7782 16.6902 21.7761 16.6573 21.7726 16.6232L21.7615 16.5229C21.7541 16.4633 21.7465 16.4029 21.7451 16.3425L21.7936 15.6593L21.7981 15.6435V15.6299C21.802 15.6142 21.8285 15.5236 21.8285 15.5236C21.8695 15.3488 21.9061 15.2224 21.9472 15.1109C21.9702 15.0495 21.9987 14.988 22.0277 14.9245C22.0803 14.8076 22.1419 14.6893 22.2129 14.5687L22.224 14.5501C22.2519 14.5031 22.2797 14.4564 22.3111 14.4094C22.4392 14.2224 22.5567 14.0764 22.6797 13.9529C23.2903 13.3381 24.1015 12.9995 24.965 12.9995C25.828 12.9995 26.639 13.3377 27.2493 13.9519C28.508 15.2203 28.507 17.2847 27.2479 18.5526C27.1232 18.6785 26.9748 18.8 26.793 18.9239C26.7435 18.9592 26.7008 18.9843 26.6569 19.0105L26.6328 19.0246C26.5143 19.0958 26.3977 19.1576 26.2876 19.2085C26.2225 19.2387 26.1615 19.2664 26.0995 19.2896C25.9783 19.3351 25.8498 19.3734 25.7046 19.4071C25.6742 19.4145 25.6467 19.4226 25.6191 19.4302C25.6025 19.4348 25.5857 19.4402 25.5686 19.4443L24.8527 19.4948C24.7621 19.4902 24.6652 19.478 24.5633 19.465L24.5194 19.4594C24.4863 19.4553 24.4557 19.4538 24.4264 19.4517C24.4145 19.4511 24.4023 19.4511 24.3904 19.4493L24.3664 19.4462L24.335 19.4437C24.2816 19.4416 24.2284 19.4406 24.1748 19.4406C22.9381 19.4406 21.7168 19.9712 20.8244 20.896C19.9344 21.8186 19.4442 23.0608 19.4793 24.3033L19.4803 24.3395L19.4867 24.3753C19.4943 24.4115 19.4957 24.4494 19.4984 24.4862C19.5008 24.5245 19.5039 24.5617 19.5078 24.6C19.5109 24.6302 19.5152 24.6689 19.5199 24.7073C19.5259 24.7617 19.5329 24.8151 19.5339 24.8691L19.4824 25.5782C19.4785 25.5962 19.4725 25.615 19.467 25.6342L19.4489 25.6978C19.4129 25.8564 19.3749 25.9886 19.3318 26.1059C19.3088 26.1673 19.2792 26.2308 19.2497 26.296C19.1967 26.4129 19.1367 26.5283 19.0665 26.6462C19.0332 26.7027 19.002 26.7556 18.9685 26.8055C18.8361 26.9989 18.7219 27.141 18.5972 27.2655C17.9871 27.8797 17.1771 28.2173 16.3158 28.2173Z" fill="white"/>
</svg>
