<svg width="155" height="50" viewBox="0 0 155 50" fill="none" xmlns="http://www.w3.org/2000/svg">
<circle cx="25" cy="25" r="25" fill="#0668FD"/>
<path d="M33.7738 37.0008C32.9109 37.0008 32.0992 36.6622 31.4895 36.0479C30.8787 35.4341 30.543 34.6172 30.543 33.7476C30.543 32.8794 30.8787 32.0626 31.4879 31.4492C32.0982 30.8345 32.9098 30.4958 33.7726 30.4958C34.6351 30.4958 35.4461 30.8334 36.0554 31.4478C37.3148 32.7166 37.3148 34.7811 36.0554 36.0495C35.4461 36.6632 34.6357 37.0008 33.7738 37.0008Z" fill="white"/>
<path d="M16.2308 19.6556C15.3679 19.6556 14.5565 19.3169 13.9461 18.7022C13.3362 18.0884 13 17.2715 13 16.4023C13 15.5335 13.3354 14.7173 13.9447 14.1042C14.5554 13.4888 15.3673 13.1501 16.2304 13.1501C17.0924 13.1501 17.9033 13.4881 18.5123 14.1021C19.123 14.7169 19.4592 15.5342 19.4592 16.403C19.4592 17.2722 19.1232 18.089 18.5129 18.7038C17.9033 19.3173 17.0928 19.6556 16.2308 19.6556Z" fill="white"/>
<path d="M33.6303 19.5602C32.7667 19.5602 31.9559 19.2216 31.346 18.6072C30.0873 17.3388 30.0863 15.2754 31.3442 14.008C31.9545 13.3932 32.7659 13.0542 33.6295 13.0542C34.4918 13.0542 35.3028 13.3928 35.9128 14.007C37.1715 15.2748 37.1715 17.3392 35.9128 18.6091C35.3032 19.222 34.4922 19.5602 33.6303 19.5602Z" fill="white"/>
<path d="M16.3152 36.9995C15.4522 36.9995 14.6408 36.6608 14.0299 36.0465C13.4199 35.4323 13.0843 34.6159 13.085 33.7466C13.085 32.8779 13.4218 32.0612 14.0319 31.4468C14.1596 31.3173 14.3036 31.1988 14.4868 31.0743C14.5418 31.0356 14.5928 31.0048 14.6453 30.9725C14.7649 30.9034 14.884 30.8403 14.9951 30.789C15.0557 30.7617 15.1177 30.7336 15.1832 30.7086C15.2992 30.6651 15.4288 30.6264 15.5769 30.5911C15.6065 30.583 15.6325 30.576 15.659 30.5683C15.6757 30.5638 15.6917 30.5582 15.7085 30.5542L16.4275 30.505C16.5187 30.5089 16.6163 30.5205 16.7204 30.5342L16.7614 30.5398C16.7859 30.5427 16.8189 30.5454 16.852 30.5472L16.881 30.5493L16.9138 30.5559H16.9424C16.9949 30.558 17.0475 30.5588 17.0995 30.5588C18.3387 30.5588 19.5618 30.0272 20.4558 29.1011C21.3459 28.1789 21.8361 26.9384 21.801 25.6967L21.7999 25.6598L21.7931 25.6214C21.7864 25.5866 21.7845 25.5514 21.7821 25.5165C21.779 25.4747 21.7755 25.4333 21.7704 25.3915L21.7623 25.3185C21.7554 25.2561 21.7484 25.195 21.7443 25.1326L21.7993 24.4061C21.8028 24.3879 21.8094 24.3713 21.8143 24.3535L21.8272 24.3087C21.8605 24.1711 21.8958 24.0329 21.9474 23.8993C21.9739 23.8234 21.9993 23.7673 22.0269 23.7098C22.0844 23.5828 22.1439 23.4674 22.2139 23.3491C22.2443 23.2978 22.2739 23.2456 22.309 23.1954C22.4394 23.0038 22.5581 22.8574 22.6812 22.7332C23.2911 22.1189 24.1019 21.7809 24.9659 21.7809C25.8282 21.7809 26.6402 22.1185 27.2506 22.7322C28.5082 24.0007 28.5074 26.0647 27.2477 27.3333C27.1204 27.462 26.976 27.5799 26.7924 27.7063C26.7388 27.7431 26.6879 27.7737 26.6367 27.8041C26.5207 27.874 26.4036 27.9361 26.2872 27.9901C26.2242 28.0186 26.1611 28.048 26.1001 28.0705C25.9765 28.1169 25.8455 28.1562 25.7079 28.1874L25.6304 28.2091C25.6128 28.2141 25.5957 28.2197 25.5783 28.2242L24.8523 28.2761C24.7673 28.2726 24.6781 28.2611 24.5837 28.2488L24.5192 28.2408C24.4976 28.2373 24.4637 28.2348 24.4297 28.2327L24.4042 28.2302L24.3672 28.223H24.3383C24.2853 28.2211 24.2331 28.2205 24.1807 28.2205C22.9416 28.2205 21.7188 28.7515 20.8255 29.6778C19.935 30.6004 19.4446 31.8421 19.4797 33.0837L19.4807 33.1205L19.4875 33.1573C19.4943 33.1927 19.4957 33.2274 19.4986 33.2626C19.5015 33.3046 19.5052 33.3458 19.5101 33.3871C19.5115 33.4118 19.5164 33.4566 19.522 33.5005C19.5273 33.5503 19.5339 33.5987 19.5339 33.6486V33.6664L19.4817 34.3627C19.4785 34.3774 19.4552 34.4576 19.4487 34.4826C19.4138 34.6328 19.3743 34.7658 19.3302 34.8854C19.3061 34.952 19.2817 35.0093 19.2532 35.0693C19.1971 35.1928 19.1361 35.3113 19.0671 35.4317C19.0367 35.4809 19.0008 35.5388 18.9642 35.5945C18.8441 35.7699 18.725 35.9174 18.5974 36.0465C17.9889 36.6602 17.1781 36.9988 16.3156 36.9988H16.3152V36.9995Z" fill="white"/>
<path d="M25.0359 36.9997C24.1724 36.9997 23.361 36.6611 22.7506 36.0463C22.1409 35.4321 21.8051 34.6157 21.8047 33.7465C21.8043 32.8783 22.1398 32.0618 22.7492 31.4491C22.8736 31.3231 23.0149 31.2073 23.208 31.0728C23.2558 31.0402 23.3074 31.0083 23.3614 30.9771C23.4799 30.9055 23.5941 30.8451 23.7125 30.7901C23.7756 30.7613 23.8372 30.7328 23.8998 30.709C24.0198 30.6645 24.1504 30.6258 24.289 30.595C24.289 30.595 24.4026 30.5617 24.4172 30.5582L25.1474 30.5044C25.2337 30.5083 25.3265 30.521 25.4239 30.5336L25.4779 30.5408C25.5138 30.5443 25.5438 30.5472 25.574 30.5478C25.5859 30.5489 25.598 30.5489 25.6095 30.5499L25.6325 30.553L25.6629 30.5561C25.7163 30.5576 25.7705 30.559 25.8239 30.559C27.0607 30.5586 28.282 30.0278 29.1739 29.1027C30.0639 28.1812 30.5542 26.939 30.519 25.6975L30.5145 25.5459L30.5012 25.5291C30.5006 25.5241 30.5005 25.5182 30.5001 25.5126C30.4983 25.4772 30.4962 25.4416 30.4927 25.4058L30.4808 25.3016C30.4743 25.2443 30.4669 25.1878 30.4648 25.1303L30.5149 24.4264C30.5188 24.4092 30.5441 24.3221 30.5498 24.2958C30.5909 24.1277 30.6269 24.0046 30.6679 23.8952C30.6909 23.8298 30.7191 23.7698 30.7474 23.7067C30.799 23.5934 30.8595 23.4779 30.9335 23.3509L30.9474 23.3278C30.9723 23.2849 30.9963 23.2427 31.0259 23.2014C31.1581 23.0073 31.2756 22.8613 31.3996 22.7364C32.0102 22.1216 32.822 21.783 33.685 21.783C34.5473 21.783 35.3579 22.121 35.9678 22.7349C37.2263 24.0027 37.2263 26.0678 35.9678 27.337C35.8456 27.4595 35.7 27.578 35.5105 27.7098C35.4739 27.735 35.439 27.7561 35.4041 27.7772L35.3476 27.8126C35.2396 27.8771 35.1219 27.9392 35.0073 27.9921C34.9426 28.0213 34.8819 28.0494 34.8176 28.0736C34.7046 28.1167 34.58 28.1529 34.4229 28.1907C34.3914 28.1982 34.366 28.2062 34.3407 28.2139C34.3231 28.2184 34.3066 28.2238 34.2896 28.228L33.5718 28.2778C33.4667 28.2733 33.3531 28.2577 33.243 28.2431C33.2054 28.2385 33.1765 28.2371 33.1479 28.2354C33.1371 28.235 33.1262 28.235 33.1151 28.2333L33.0539 28.2269C33.0005 28.2249 32.9475 28.2238 32.8945 28.2238C31.6568 28.2238 30.4357 28.755 29.5425 29.6801C28.6531 30.6027 28.1633 31.844 28.1994 33.0866L28.2004 33.123L28.2074 33.1588C28.2144 33.1956 28.2158 33.2332 28.2185 33.2701C28.221 33.3083 28.2238 33.3458 28.228 33.3824C28.2304 33.4132 28.2349 33.4525 28.2391 33.4906C28.2456 33.5456 28.2522 33.601 28.2536 33.6558L28.2006 34.3697C28.1967 34.3854 28.169 34.4816 28.169 34.4816C28.1345 34.6328 28.0961 34.7652 28.0505 34.8897C28.029 34.9483 28.0035 35.0048 27.9774 35.0637L27.9684 35.0844C27.915 35.2006 27.8548 35.3157 27.7876 35.428C27.7548 35.4834 27.7221 35.5378 27.6876 35.5893C27.5611 35.7743 27.4418 35.9213 27.3145 36.0508C26.7072 36.6621 25.8979 36.9997 25.0359 36.9997Z" fill="white"/>
<path d="M16.3158 28.2173C15.4528 28.2173 14.6416 27.8793 14.0319 27.2653C13.4218 26.6501 13.0856 25.8332 13.085 24.964C13.0846 24.0957 13.4195 23.2798 14.0294 22.6661C14.1545 22.5401 14.3001 22.4212 14.4874 22.2911C14.5363 22.258 14.5913 22.224 14.6464 22.1907C14.7581 22.1243 14.8721 22.0633 14.9936 22.0068C15.0561 21.9781 15.1181 21.9499 15.184 21.9251C15.3027 21.8813 15.4337 21.8424 15.5703 21.8118L15.6525 21.7886C15.6677 21.7841 15.6822 21.7791 15.6972 21.7756L16.4281 21.7226C16.523 21.7265 16.6257 21.7402 16.7333 21.7549L16.7559 21.758C16.7935 21.7619 16.8224 21.7636 16.852 21.765C16.8625 21.7654 16.873 21.7654 16.8834 21.7671L16.9149 21.7727L16.9444 21.7737C16.9986 21.7752 17.052 21.7762 17.1054 21.7762C18.3417 21.7762 19.5629 21.2456 20.4554 20.3199C21.345 19.3974 21.8348 18.1556 21.7991 16.9136L21.7981 16.8778L21.7911 16.8425C21.7835 16.8032 21.7827 16.7632 21.78 16.7229C21.7782 16.6902 21.7761 16.6573 21.7726 16.6232L21.7615 16.5229C21.7541 16.4633 21.7465 16.4029 21.7451 16.3425L21.7936 15.6593L21.7981 15.6435V15.6299C21.802 15.6142 21.8285 15.5236 21.8285 15.5236C21.8695 15.3488 21.9061 15.2224 21.9472 15.1109C21.9702 15.0495 21.9987 14.988 22.0277 14.9245C22.0803 14.8076 22.1419 14.6893 22.2129 14.5687L22.224 14.5501C22.2519 14.5031 22.2797 14.4564 22.3111 14.4094C22.4392 14.2224 22.5567 14.0764 22.6797 13.9529C23.2903 13.3381 24.1015 12.9995 24.965 12.9995C25.828 12.9995 26.639 13.3377 27.2493 13.9519C28.508 15.2203 28.507 17.2847 27.2479 18.5526C27.1232 18.6785 26.9748 18.8 26.793 18.9239C26.7435 18.9592 26.7008 18.9843 26.6569 19.0105L26.6328 19.0246C26.5143 19.0958 26.3977 19.1576 26.2876 19.2085C26.2225 19.2387 26.1615 19.2664 26.0995 19.2896C25.9783 19.3351 25.8498 19.3734 25.7046 19.4071C25.6742 19.4145 25.6467 19.4226 25.6191 19.4302C25.6025 19.4348 25.5857 19.4402 25.5686 19.4443L24.8527 19.4948C24.7621 19.4902 24.6652 19.478 24.5633 19.465L24.5194 19.4594C24.4863 19.4553 24.4557 19.4538 24.4264 19.4517C24.4145 19.4511 24.4023 19.4511 24.3904 19.4493L24.3664 19.4462L24.335 19.4437C24.2816 19.4416 24.2284 19.4406 24.1748 19.4406C22.9381 19.4406 21.7168 19.9712 20.8244 20.896C19.9344 21.8186 19.4442 23.0608 19.4793 24.3033L19.4803 24.3395L19.4867 24.3753C19.4943 24.4115 19.4957 24.4494 19.4984 24.4862C19.5008 24.5245 19.5039 24.5617 19.5078 24.6C19.5109 24.6302 19.5152 24.6689 19.5199 24.7073C19.5259 24.7617 19.5329 24.8151 19.5339 24.8691L19.4824 25.5782C19.4785 25.5962 19.4725 25.615 19.467 25.6342L19.4489 25.6978C19.4129 25.8564 19.3749 25.9886 19.3318 26.1059C19.3088 26.1673 19.2792 26.2308 19.2497 26.296C19.1967 26.4129 19.1367 26.5283 19.0665 26.6462C19.0332 26.7027 19.002 26.7556 18.9685 26.8055C18.8361 26.9989 18.7219 27.141 18.5972 27.2655C17.9871 27.8797 17.1771 28.2173 16.3158 28.2173Z" fill="white"/>
<path d="M74.052 35.336C72.7267 35.336 71.532 35.1307 70.468 34.72C69.404 34.2907 68.4987 33.6653 67.752 32.844C67.0053 32.004 66.4267 30.968 66.016 29.736C65.6053 28.4853 65.4 27.0293 65.4 25.368C65.4 23.7253 65.6053 22.2693 66.016 21C66.4267 19.712 67.0053 18.6387 67.752 17.78C68.4987 16.9027 69.404 16.24 70.468 15.792C71.532 15.344 72.7267 15.12 74.052 15.12C75.8627 15.12 77.356 15.4933 78.532 16.24C79.708 16.968 80.6507 18.1253 81.36 19.712L77.692 21.616C77.4307 20.7947 77.02 20.1413 76.46 19.656C75.9187 19.152 75.116 18.9 74.052 18.9C72.8013 18.9 71.7933 19.3107 71.028 20.132C70.2813 20.9347 69.908 22.1107 69.908 23.66V26.796C69.908 28.3453 70.2813 29.5307 71.028 30.352C71.7933 31.1547 72.8013 31.556 74.052 31.556C75.0973 31.556 75.928 31.276 76.544 30.716C77.1787 30.1373 77.6453 29.4467 77.944 28.644L81.416 30.66C80.688 32.1533 79.7267 33.3107 78.532 34.132C77.356 34.9347 75.8627 35.336 74.052 35.336ZM90.1343 35.336C89.0516 35.336 88.0809 35.1587 87.2223 34.804C86.3823 34.4493 85.6636 33.936 85.0663 33.264C84.4876 32.592 84.0396 31.78 83.7223 30.828C83.4049 29.876 83.2463 28.812 83.2463 27.636C83.2463 26.46 83.4049 25.396 83.7223 24.444C84.0396 23.492 84.4876 22.6893 85.0663 22.036C85.6636 21.364 86.3823 20.8507 87.2223 20.496C88.0809 20.1413 89.0516 19.964 90.1343 19.964C91.2169 19.964 92.1783 20.1413 93.0183 20.496C93.8769 20.8507 94.5956 21.364 95.1743 22.036C95.7716 22.6893 96.2289 23.492 96.5463 24.444C96.8636 25.396 97.0223 26.46 97.0223 27.636C97.0223 28.812 96.8636 29.876 96.5463 30.828C96.2289 31.78 95.7716 32.592 95.1743 33.264C94.5956 33.936 93.8769 34.4493 93.0183 34.804C92.1783 35.1587 91.2169 35.336 90.1343 35.336ZM90.1343 32.06C90.9556 32.06 91.5903 31.808 92.0383 31.304C92.4863 30.8 92.7103 30.0813 92.7103 29.148V26.152C92.7103 25.2187 92.4863 24.5 92.0383 23.996C91.5903 23.492 90.9556 23.24 90.1343 23.24C89.3129 23.24 88.6783 23.492 88.2303 23.996C87.7823 24.5 87.5583 25.2187 87.5583 26.152V29.148C87.5583 30.0813 87.7823 30.8 88.2303 31.304C88.6783 31.808 89.3129 32.06 90.1343 32.06ZM108.991 32.536H108.851C108.739 32.928 108.562 33.3013 108.319 33.656C108.076 33.992 107.778 34.2907 107.423 34.552C107.087 34.7947 106.695 34.9813 106.247 35.112C105.818 35.2613 105.37 35.336 104.903 35.336C103.036 35.336 101.627 34.6827 100.675 33.376C99.723 32.0507 99.247 30.1373 99.247 27.636C99.247 25.1347 99.723 23.2307 100.675 21.924C101.627 20.6173 103.036 19.964 104.903 19.964C105.855 19.964 106.695 20.2253 107.423 20.748C108.17 21.2707 108.646 21.9427 108.851 22.764H108.991V14.28H113.135V35H108.991V32.536ZM106.275 31.976C107.059 31.976 107.703 31.7893 108.207 31.416C108.73 31.024 108.991 30.492 108.991 29.82V25.48C108.991 24.808 108.73 24.2853 108.207 23.912C107.703 23.52 107.059 23.324 106.275 23.324C105.491 23.324 104.838 23.604 104.315 24.164C103.811 24.7053 103.559 25.4427 103.559 26.376V28.924C103.559 29.8573 103.811 30.604 104.315 31.164C104.838 31.7053 105.491 31.976 106.275 31.976ZM123.142 35.336C122.022 35.336 121.023 35.1587 120.146 34.804C119.269 34.4307 118.522 33.9173 117.906 33.264C117.309 32.592 116.851 31.78 116.534 30.828C116.235 29.876 116.086 28.812 116.086 27.636C116.086 26.4787 116.235 25.4333 116.534 24.5C116.833 23.548 117.271 22.736 117.85 22.064C118.447 21.392 119.175 20.8787 120.034 20.524C120.893 20.1507 121.873 19.964 122.974 19.964C124.187 19.964 125.223 20.1693 126.082 20.58C126.959 20.9907 127.669 21.5413 128.21 22.232C128.77 22.9227 129.171 23.7253 129.414 24.64C129.675 25.536 129.806 26.4787 129.806 27.468V28.7H120.37V28.924C120.37 29.8947 120.631 30.6693 121.154 31.248C121.677 31.808 122.498 32.088 123.618 32.088C124.477 32.088 125.177 31.92 125.718 31.584C126.259 31.2293 126.763 30.8093 127.23 30.324L129.302 32.9C128.649 33.6653 127.79 34.2627 126.726 34.692C125.681 35.1213 124.486 35.336 123.142 35.336ZM123.058 23.016C122.218 23.016 121.555 23.296 121.07 23.856C120.603 24.3973 120.37 25.1253 120.37 26.04V26.264H125.522V26.012C125.522 25.116 125.317 24.3973 124.906 23.856C124.514 23.296 123.898 23.016 123.058 23.016ZM134.805 18.732C133.965 18.732 133.349 18.5453 132.957 18.172C132.583 17.78 132.397 17.2853 132.397 16.688V16.072C132.397 15.4747 132.583 14.9893 132.957 14.616C133.349 14.224 133.965 14.028 134.805 14.028C135.645 14.028 136.251 14.224 136.625 14.616C137.017 14.9893 137.213 15.4747 137.213 16.072V16.688C137.213 17.2853 137.017 17.78 136.625 18.172C136.251 18.5453 135.645 18.732 134.805 18.732ZM132.733 20.3H136.877V35H132.733V20.3ZM146.709 35.336C145.626 35.336 144.655 35.1587 143.797 34.804C142.957 34.4493 142.238 33.936 141.641 33.264C141.062 32.592 140.614 31.78 140.297 30.828C139.979 29.876 139.821 28.812 139.821 27.636C139.821 26.46 139.979 25.396 140.297 24.444C140.614 23.492 141.062 22.6893 141.641 22.036C142.238 21.364 142.957 20.8507 143.797 20.496C144.655 20.1413 145.626 19.964 146.709 19.964C147.791 19.964 148.753 20.1413 149.593 20.496C150.451 20.8507 151.17 21.364 151.749 22.036C152.346 22.6893 152.803 23.492 153.121 24.444C153.438 25.396 153.596 26.46 153.596 27.636C153.596 28.812 153.438 29.876 153.121 30.828C152.803 31.78 152.346 32.592 151.749 33.264C151.17 33.936 150.451 34.4493 149.593 34.804C148.753 35.1587 147.791 35.336 146.709 35.336ZM146.709 32.06C147.53 32.06 148.165 31.808 148.613 31.304C149.061 30.8 149.285 30.0813 149.285 29.148V26.152C149.285 25.2187 149.061 24.5 148.613 23.996C148.165 23.492 147.53 23.24 146.709 23.24C145.887 23.24 145.253 23.492 144.805 23.996C144.357 24.5 144.133 25.2187 144.133 26.152V29.148C144.133 30.0813 144.357 30.8 144.805 31.304C145.253 31.808 145.887 32.06 146.709 32.06Z" fill="white"/>
</svg>
