<?xml version="1.0" encoding="UTF-8"?>
<svg width="1200" height="800" viewBox="0 0 1200 800" xmlns="http://www.w3.org/2000/svg" role="img" aria-label="Monitoring dashboard with graphs and alerts">
  <defs>
    <linearGradient id="g1" x1="0" x2="1" y1="0" y2="1">
      <stop offset="0%" stop-color="#0ea5e9"/>
      <stop offset="100%" stop-color="#6d28d9"/>
    </linearGradient>
  </defs>
  <rect width="1200" height="800" rx="28" fill="#0b1220"/>
  <!-- Header Bar -->
  <rect x="40" y="40" width="1120" height="60" rx="12" fill="#111827"/>
  <circle cx="70" cy="70" r="8" fill="#ef4444"/>
  <circle cx="95" cy="70" r="8" fill="#f59e0b"/>
  <circle cx="120" cy="70" r="8" fill="#10b981"/>

  <!-- Left chart card -->
  <rect x="60" y="130" width="520" height="280" rx="16" fill="#111827" stroke="#1f2937"/>
  <polyline points="90,370 160,300 220,330 300,240 360,280 430,210 560,260" fill="none" stroke="url(#g1)" stroke-width="6"/>
  <line x1="90" y1="340" x2="560" y2="340" stroke="#1f2937" stroke-width="2"/>
  <line x1="90" y1="300" x2="560" y2="300" stroke="#1f2937" stroke-width="2"/>

  <!-- Right chart card -->
  <rect x="620" y="130" width="520" height="280" rx="16" fill="#111827" stroke="#1f2937"/>
  <rect x="650" y="160" width="60" height="220" rx="8" fill="#334155"/>
  <rect x="730" y="200" width="60" height="180" rx="8" fill="#3b82f6"/>
  <rect x="810" y="170" width="60" height="210" rx="8" fill="#22d3ee"/>
  <rect x="890" y="220" width="60" height="160" rx="8" fill="#a855f7"/>
  <rect x="970" y="185" width="60" height="195" rx="8" fill="#10b981"/>

  <!-- Alerts strip -->
  <rect x="60" y="440" width="1080" height="80" rx="16" fill="#111827"/>
  <circle cx="100" cy="480" r="10" fill="#f59e0b"/>
  <rect x="120" y="465" width="260" height="30" rx="6" fill="#1f2937"/>
  <circle cx="440" cy="480" r="10" fill="#ef4444"/>
  <rect x="460" y="465" width="260" height="30" rx="6" fill="#1f2937"/>
  <circle cx="780" cy="480" r="10" fill="#10b981"/>
  <rect x="800" y="465" width="260" height="30" rx="6" fill="#1f2937"/>

  <!-- Timeline sparkline -->
  <rect x="60" y="550" width="1080" height="180" rx="16" fill="#111827"/>
  <polyline points="80,700 140,660 200,670 260,640 320,650 380,610 440,650 500,620 560,640 620,600 680,630 740,590 800,620 860,610 920,640 980,630 1040,650 1120,620" fill="none" stroke="#22d3ee" stroke-width="4"/>
  <circle cx="740" cy="590" r="10" fill="#ef4444"/>
  <text x="760" y="585" fill="#e5e7eb" font-family="system-ui, -apple-system, Segoe UI, Roboto, Ubuntu, Cantarell, Noto Sans, Helvetica Neue, Arial" font-size="18">Alert Spike</text>
</svg>

