<?xml version="1.0" encoding="UTF-8"?>
<svg width="1200" height="800" viewBox="0 0 1200 800" xmlns="http://www.w3.org/2000/svg" role="img" aria-label="Scalable architecture with growth trend">
  <defs>
    <linearGradient id="grad" x1="0" y1="0" x2="1" y2="1">
      <stop offset="0%" stop-color="#22d3ee"/>
      <stop offset="100%" stop-color="#a855f7"/>
    </linearGradient>
  </defs>
  <rect width="1200" height="800" rx="28" fill="#0b1220"/>
  <!-- grid -->
  <g stroke="#1f2937" stroke-width="2">
    <line x1="80" y1="700" x2="1120" y2="700"/>
    <line x1="80" y1="630" x2="1120" y2="630"/>
    <line x1="80" y1="560" x2="1120" y2="560"/>
  </g>
  <!-- bars -->
  <rect x="140" y="600" width="60" height="100" rx="8" fill="#334155"/>
  <rect x="240" y="560" width="60" height="140" rx="8" fill="#3b82f6"/>
  <rect x="340" y="520" width="60" height="180" rx="8" fill="#22d3ee"/>
  <rect x="440" y="470" width="60" height="230" rx="8" fill="#a855f7"/>
  <rect x="540" y="420" width="60" height="280" rx="8" fill="#10b981"/>
  <rect x="640" y="380" width="60" height="320" rx="8" fill="#f59e0b"/>
  <rect x="740" y="340" width="60" height="360" rx="8" fill="#ef4444"/>
  <rect x="840" y="300" width="60" height="400" rx="8" fill="#6366f1"/>
  <!-- trend line with arrow -->
  <polyline points="120,680 220,640 320,610 420,560 520,520 620,490 720,450 820,410 920,360 1020,320" fill="none" stroke="url(#grad)" stroke-width="6"/>
  <polygon points="1020,320 990,320 1010,300" fill="url(#grad)"/>
  <!-- nodes boxes representing scalable services -->
  <g fill="#111827" stroke="#1f2937">
    <rect x="160" y="160" width="160" height="90" rx="12"/>
    <rect x="360" y="160" width="160" height="90" rx="12"/>
    <rect x="560" y="160" width="160" height="90" rx="12"/>
    <rect x="760" y="160" width="160" height="90" rx="12"/>
  </g>
  <g fill="#22d3ee">
    <circle cx="210" cy="205" r="6"/>
    <circle cx="410" cy="205" r="6"/>
    <circle cx="610" cy="205" r="6"/>
    <circle cx="810" cy="205" r="6"/>
  </g>
</svg>

