<svg width="82" height="60" viewBox="0 0 82 60" fill="none" xmlns="http://www.w3.org/2000/svg">
<path d="M62.5847 59.5C57.0954 59.4999 52.3819 57.2377 49.033 53.2998C45.6796 49.3565 43.6745 43.7065 43.6746 36.9131C43.7464 17.2018 58.5472 3.20691 80.074 0.511719C81.5177 0.330965 82.0744 2.33169 80.7449 2.92285C72.3597 6.65145 67.9427 11.4602 67.3679 16.3809C66.9427 20.0216 68.9093 23.3698 71.6052 24.0176C74.5102 24.7157 76.9806 26.8856 78.7341 29.8965C80.486 32.9046 81.4958 36.7118 81.4958 40.5889C81.4958 51.0331 73.029 59.5 62.5847 59.5Z" stroke="white"/>
<path d="M20.2332 59.5C14.7438 59.4999 10.0303 57.2377 6.6814 53.2998C3.32802 49.3565 1.32292 43.7065 1.323 36.9131C1.39483 17.2018 16.1957 3.20691 37.7224 0.511719C39.1662 0.330965 39.7228 2.33169 38.3933 2.92285C30.0081 6.65145 25.5911 11.4602 25.0164 16.3809C24.5912 20.0216 26.5578 23.3698 29.2537 24.0176C32.1586 24.7157 34.629 26.8856 36.3826 29.8965C38.1345 32.9046 39.1443 36.7118 39.1443 40.5889C39.1443 51.0331 30.6775 59.5 20.2332 59.5Z" stroke="white"/>
</svg>
