<svg width="54" height="40" viewBox="0 0 54 40" fill="none" xmlns="http://www.w3.org/2000/svg">
<path d="M41.085 39.5004C37.4831 39.5004 34.3935 38.0143 32.1973 35.4261C30.0654 32.9137 28.7565 29.338 28.6768 25.0287L28.6729 24.6088C28.7207 11.5709 38.4834 2.296 52.7393 0.507202C53.5036 0.4113 53.8096 1.47818 53.0967 1.79626C47.5004 4.29016 44.4933 7.53259 44.1006 10.9017C43.9534 12.1645 44.2204 13.3581 44.751 14.2963C45.2784 15.2287 46.0883 15.9437 47.0449 16.1742C48.9198 16.6257 50.5304 18.0339 51.6816 20.015C52.8312 21.9933 53.4971 24.5023 53.4971 27.0599C53.497 33.9315 47.9388 39.5002 41.085 39.5004Z" stroke="#0668FD"/>
<path d="M12.9131 39.5002C9.31121 39.5002 6.22159 38.0142 4.02539 35.426C1.89355 32.9136 0.584643 29.3379 0.504883 25.0286L0.500977 24.6086C0.548867 11.5708 10.3115 2.29588 24.5674 0.50708C25.3317 0.411178 25.6377 1.47806 24.9248 1.79614C19.3285 4.29003 16.3214 7.53247 15.9287 10.9016C15.7815 12.1644 16.0485 13.358 16.5791 14.2961C17.1065 15.2286 17.9165 15.9436 18.873 16.1741C20.748 16.6256 22.3585 18.0338 23.5098 20.0149C24.6593 21.9931 25.3252 24.5022 25.3252 27.0598C25.3251 33.9314 19.7669 39.5 12.9131 39.5002Z" stroke="#0668FD"/>
</svg>
